<?xml version="1.0" encoding="UTF-8"?><svg id="Layer_1" xmlns="http://www.w3.org/2000/svg" xmlns:xlink="http://www.w3.org/1999/xlink" viewBox="0 0 600 800"><defs><style>.cls-1,.cls-2,.cls-3,.cls-4{fill:none;}.cls-5{clip-path:url(#clippath);}.cls-6{font-size:22px;}.cls-6,.cls-7,.cls-8{fill:#fff;}.cls-6,.cls-8{font-family:SpaceMono-Regular, 'Space Mono';}.cls-9{fill:#ff9c96;}.cls-10{fill:#e5e5e5;}.cls-2{stroke:#e5e5e5;stroke-width:1.25px;}.cls-2,.cls-3,.cls-4{stroke-miterlimit:10;}.cls-11{clip-path:url(#clippath-1);}.cls-3{stroke:#ff9c96;}.cls-4{stroke:#fff;}.cls-8{font-size:14px;}</style><clipPath id="clippath"><path class="cls-1" d="M547.26,407.29c-15.98-11.09-35.38-17.6-56.3-17.6s-40.32,6.51-56.3,17.6c15.98,11.09,35.38,17.6,56.3,17.6s40.32-6.51,56.3-17.6Z"/></clipPath><clipPath id="clippath-1"><path class="cls-1" d="M547.26,570.07c-15.98-11.09-35.38-17.6-56.3-17.6s-40.32,6.51-56.3,17.6c15.98,11.09,35.38,17.6,56.3,17.6s40.32-6.51,56.3-17.6Z"/></clipPath></defs><g class="cls-5"><g><line class="cls-3" x1="326.86" y1="453.16" x2="412.08" y2="371.82"/><line class="cls-3" x1="334.46" y1="453.16" x2="419.68" y2="371.82"/><line class="cls-3" x1="342.05" y1="453.16" x2="427.27" y2="371.82"/><line class="cls-3" x1="349.65" y1="453.16" x2="434.87" y2="371.82"/><line class="cls-3" x1="357.25" y1="453.16" x2="442.47" y2="371.82"/><line class="cls-3" x1="364.85" y1="453.16" x2="450.06" y2="371.82"/><line class="cls-3" x1="372.44" y1="453.16" x2="457.66" y2="371.82"/><line class="cls-3" x1="380.04" y1="453.16" x2="465.26" y2="371.82"/><line class="cls-3" x1="387.64" y1="453.16" x2="472.86" y2="371.82"/><line class="cls-3" x1="395.23" y1="453.16" x2="480.45" y2="371.82"/><line class="cls-3" x1="402.83" y1="453.16" x2="488.05" y2="371.82"/><line class="cls-3" x1="410.43" y1="453.16" x2="495.65" y2="371.82"/><line class="cls-3" x1="418.02" y1="453.16" x2="503.24" y2="371.82"/><line class="cls-3" x1="425.62" y1="453.16" x2="510.84" y2="371.82"/><line class="cls-3" x1="433.22" y1="453.16" x2="518.44" y2="371.82"/><line class="cls-3" x1="440.81" y1="453.16" x2="526.03" y2="371.82"/><line class="cls-3" x1="448.41" y1="453.16" x2="533.63" y2="371.82"/><line class="cls-3" x1="456.01" y1="453.16" x2="541.23" y2="371.82"/><line class="cls-3" x1="463.6" y1="453.16" x2="548.82" y2="371.82"/><line class="cls-3" x1="471.2" y1="453.16" x2="556.42" y2="371.82"/><line class="cls-3" x1="478.8" y1="453.16" x2="564.02" y2="371.82"/><line class="cls-3" x1="486.39" y1="453.16" x2="571.61" y2="371.82"/><line class="cls-3" x1="493.99" y1="453.16" x2="579.21" y2="371.82"/><line class="cls-3" x1="501.59" y1="453.16" x2="586.81" y2="371.82"/><line class="cls-3" x1="509.19" y1="453.16" x2="594.4" y2="371.82"/><line class="cls-3" x1="516.78" y1="453.16" x2="602" y2="371.82"/><line class="cls-3" x1="524.38" y1="453.16" x2="609.6" y2="371.82"/><line class="cls-3" x1="531.98" y1="453.16" x2="617.2" y2="371.82"/><line class="cls-3" x1="539.57" y1="453.16" x2="624.79" y2="371.82"/><line class="cls-3" x1="547.17" y1="453.16" x2="632.39" y2="371.82"/><line class="cls-3" x1="554.77" y1="453.16" x2="639.99" y2="371.82"/><line class="cls-3" x1="562.36" y1="453.16" x2="647.58" y2="371.82"/></g></g><g class="cls-11"><g><line class="cls-3" x1="326.86" y1="615.94" x2="412.08" y2="534.61"/><line class="cls-3" x1="334.46" y1="615.94" x2="419.68" y2="534.61"/><line class="cls-3" x1="342.05" y1="615.94" x2="427.27" y2="534.61"/><line class="cls-3" x1="349.65" y1="615.94" x2="434.87" y2="534.61"/><line class="cls-3" x1="357.25" y1="615.94" x2="442.47" y2="534.61"/><line class="cls-3" x1="364.85" y1="615.94" x2="450.06" y2="534.61"/><line class="cls-3" x1="372.44" y1="615.94" x2="457.66" y2="534.61"/><line class="cls-3" x1="380.04" y1="615.94" x2="465.26" y2="534.61"/><line class="cls-3" x1="387.64" y1="615.94" x2="472.86" y2="534.61"/><line class="cls-3" x1="395.23" y1="615.94" x2="480.45" y2="534.61"/><line class="cls-3" x1="402.83" y1="615.94" x2="488.05" y2="534.61"/><line class="cls-3" x1="410.43" y1="615.94" x2="495.65" y2="534.61"/><line class="cls-3" x1="418.02" y1="615.94" x2="503.24" y2="534.61"/><line class="cls-3" x1="425.62" y1="615.94" x2="510.84" y2="534.61"/><line class="cls-3" x1="433.22" y1="615.94" x2="518.44" y2="534.61"/><line class="cls-3" x1="440.81" y1="615.94" x2="526.03" y2="534.61"/><line class="cls-3" x1="448.41" y1="615.94" x2="533.63" y2="534.61"/><line class="cls-3" x1="456.01" y1="615.94" x2="541.23" y2="534.61"/><line class="cls-3" x1="463.6" y1="615.94" x2="548.82" y2="534.61"/><line class="cls-3" x1="471.2" y1="615.94" x2="556.42" y2="534.61"/><line class="cls-3" x1="478.8" y1="615.94" x2="564.02" y2="534.61"/><line class="cls-3" x1="486.39" y1="615.94" x2="571.61" y2="534.61"/><line class="cls-3" x1="493.99" y1="615.94" x2="579.21" y2="534.61"/><line class="cls-3" x1="501.59" y1="615.94" x2="586.81" y2="534.61"/><line class="cls-3" x1="509.19" y1="615.94" x2="594.4" y2="534.61"/><line class="cls-3" x1="516.78" y1="615.94" x2="602" y2="534.61"/><line class="cls-3" x1="524.38" y1="615.94" x2="609.6" y2="534.61"/><line class="cls-3" x1="531.98" y1="615.94" x2="617.2" y2="534.61"/><line class="cls-3" x1="539.57" y1="615.94" x2="624.79" y2="534.61"/><line class="cls-3" x1="547.17" y1="615.94" x2="632.39" y2="534.61"/><line class="cls-3" x1="554.77" y1="615.94" x2="639.99" y2="534.61"/><line class="cls-3" x1="562.36" y1="615.94" x2="647.58" y2="534.61"/></g></g><circle class="cls-4" cx="490.96" cy="488.82" r="98.85"/><circle class="cls-4" cx="490.96" cy="651.33" r="98.85"/><circle class="cls-4" cx="490.96" cy="326.3" r="98.85"/><circle class="cls-4" cx="490.96" cy="103.75" r="98.85"/><g><path class="cls-9" d="M479.89,79.36c0-1.27,.3-2.25,.91-2.95,.61-.7,1.45-1.05,2.53-1.05s1.93,.35,2.53,1.05c.61,.7,.91,1.68,.91,2.95v2.18c0,1.31-.3,2.3-.91,2.98-.61,.68-1.45,1.02-2.53,1.02s-1.93-.34-2.53-1.02c-.61-.68-.91-1.67-.91-2.98v-2.18Zm3.44,5.12c.76,0,1.32-.26,1.7-.79,.38-.53,.57-1.27,.57-2.23v-2.02c0-.45-.05-.86-.14-1.22-.09-.37-.24-.69-.43-.95-.19-.27-.43-.47-.71-.62-.29-.15-.61-.22-.99-.22s-.71,.07-.99,.22-.52,.36-.71,.62-.33,.58-.43,.95c-.09,.37-.14,.78-.14,1.22v2.02c0,.96,.19,1.71,.57,2.23,.38,.53,.95,.79,1.7,.79Zm-.9-4.03c0-.24,.09-.45,.27-.63,.18-.18,.39-.27,.63-.27s.45,.09,.63,.27c.18,.18,.27,.39,.27,.63s-.09,.45-.27,.63c-.18,.18-.39,.27-.63,.27s-.45-.09-.63-.27c-.18-.18-.27-.39-.27-.63Z"/><path class="cls-9" d="M491.39,84.26v-8.19h-.17l-1.61,3.68h-1.16v-.08l1.83-4.12h2.28v8.71h2.77v1.09h-6.72v-1.09h2.77Z"/><path class="cls-9" d="M499.49,84.57c0-.27,.1-.5,.29-.69,.19-.19,.42-.29,.69-.29s.5,.1,.69,.29c.19,.19,.29,.42,.29,.69s-.1,.5-.29,.69c-.19,.19-.42,.29-.69,.29s-.5-.1-.69-.29c-.19-.19-.29-.42-.29-.69Z"/></g><g><path class="cls-9" d="M479.89,296.02c0-1.27,.3-2.25,.91-2.95,.61-.7,1.45-1.05,2.53-1.05s1.93,.35,2.53,1.05c.61,.7,.91,1.68,.91,2.95v2.18c0,1.31-.3,2.3-.91,2.98-.61,.68-1.45,1.02-2.53,1.02s-1.93-.34-2.53-1.02c-.61-.68-.91-1.67-.91-2.98v-2.18Zm3.44,5.12c.76,0,1.32-.26,1.7-.79,.38-.53,.57-1.27,.57-2.23v-2.02c0-.45-.05-.86-.14-1.22-.09-.37-.24-.69-.43-.95-.19-.27-.43-.47-.71-.62-.29-.15-.61-.22-.99-.22s-.71,.07-.99,.22-.52,.36-.71,.62c-.19,.27-.33,.58-.43,.95-.09,.37-.14,.78-.14,1.22v2.02c0,.96,.19,1.71,.57,2.23,.38,.53,.95,.79,1.7,.79Zm-.9-4.03c0-.24,.09-.45,.27-.63,.18-.18,.39-.27,.63-.27s.45,.09,.63,.27,.27,.39,.27,.63-.09,.45-.27,.63c-.18,.18-.39,.27-.63,.27s-.45-.09-.63-.27-.27-.39-.27-.63Z"/><path class="cls-9" d="M495.24,300.92v1.09h-6.64v-1.68c0-.45,.07-.84,.22-1.17s.36-.62,.64-.85c.28-.24,.61-.44,1-.59,.39-.16,.83-.29,1.33-.41,.83-.19,1.43-.45,1.8-.8,.37-.34,.55-.77,.55-1.27v-.08c0-.25-.04-.5-.13-.74-.08-.24-.21-.46-.39-.66s-.4-.35-.68-.47c-.28-.12-.6-.17-.99-.17-.72,0-1.28,.22-1.67,.66-.4,.44-.59,1.02-.59,1.75v.62h-1.18v-.7c0-.45,.07-.88,.22-1.29,.15-.41,.37-.77,.66-1.09,.29-.32,.65-.57,1.08-.76,.43-.19,.92-.28,1.48-.28s1.06,.09,1.48,.26,.77,.4,1.05,.69c.28,.29,.49,.61,.62,.97,.13,.36,.2,.73,.2,1.1v.25c0,.75-.23,1.38-.7,1.91-.47,.53-1.21,.9-2.24,1.13-.9,.2-1.55,.45-1.97,.78s-.63,.79-.63,1.41v.42h5.46Z"/><path class="cls-9" d="M499.49,301.23c0-.27,.1-.5,.29-.69s.42-.29,.69-.29,.5,.1,.69,.29,.29,.42,.29,.69-.1,.5-.29,.69-.42,.29-.69,.29-.5-.1-.69-.29-.29-.42-.29-.69Z"/></g><g><path class="cls-9" d="M479.89,463.94c0-1.27,.3-2.25,.91-2.95,.61-.7,1.45-1.05,2.53-1.05s1.93,.35,2.53,1.05c.61,.7,.91,1.68,.91,2.95v2.18c0,1.31-.3,2.3-.91,2.98-.61,.68-1.45,1.02-2.53,1.02s-1.93-.34-2.53-1.02c-.61-.68-.91-1.67-.91-2.98v-2.18Zm3.44,5.12c.76,0,1.32-.26,1.7-.79,.38-.53,.57-1.27,.57-2.23v-2.02c0-.45-.05-.86-.14-1.22-.09-.37-.24-.69-.43-.95-.19-.27-.43-.47-.71-.62-.29-.15-.61-.22-.99-.22s-.71,.07-.99,.22-.52,.36-.71,.62c-.19,.27-.33,.58-.43,.95-.09,.37-.14,.78-.14,1.22v2.02c0,.96,.19,1.71,.57,2.23,.38,.53,.95,.79,1.7,.79Zm-.9-4.03c0-.24,.09-.45,.27-.63,.18-.18,.39-.27,.63-.27s.45,.09,.63,.27,.27,.39,.27,.63-.09,.45-.27,.63c-.18,.18-.39,.27-.63,.27s-.45-.09-.63-.27-.27-.39-.27-.63Z"/><path class="cls-9" d="M490.94,465.06v-1.62l3.19-2.04v-.17h-5.54v-1.09h6.55v1.79l-3.19,2.04v.17h.56c.37,0,.73,.06,1.08,.18,.35,.12,.65,.3,.92,.53,.27,.23,.48,.52,.64,.86,.16,.34,.24,.74,.24,1.18v.25c0,.42-.08,.81-.25,1.18-.17,.36-.4,.68-.7,.94-.3,.27-.65,.48-1.06,.63-.41,.15-.85,.23-1.32,.23-.55,0-1.05-.08-1.48-.25s-.81-.4-1.12-.69-.54-.64-.71-1.04c-.16-.4-.25-.82-.25-1.27v-.76h1.18v.67c0,.35,.06,.67,.18,.95,.12,.28,.28,.51,.49,.7,.21,.19,.46,.34,.75,.44s.6,.15,.94,.15c.31,0,.59-.05,.86-.15,.27-.1,.5-.25,.69-.43,.2-.18,.35-.4,.46-.64,.11-.25,.17-.51,.17-.79v-.08c0-.59-.19-1.05-.56-1.38-.37-.33-.84-.5-1.4-.5h-1.32Z"/><path class="cls-9" d="M499.49,469.15c0-.27,.1-.5,.29-.69s.42-.29,.69-.29,.5,.1,.69,.29,.29,.42,.29,.69-.1,.5-.29,.69-.42,.29-.69,.29-.5-.1-.69-.29-.29-.42-.29-.69Z"/></g><g><path class="cls-9" d="M479.89,627.42c0-1.27,.3-2.25,.91-2.95,.61-.7,1.45-1.05,2.53-1.05s1.93,.35,2.53,1.05c.61,.7,.91,1.68,.91,2.95v2.18c0,1.31-.3,2.3-.91,2.98-.61,.68-1.45,1.02-2.53,1.02s-1.93-.34-2.53-1.02c-.61-.68-.91-1.67-.91-2.98v-2.18Zm3.44,5.12c.76,0,1.32-.26,1.7-.79,.38-.53,.57-1.27,.57-2.23v-2.02c0-.45-.05-.86-.14-1.22-.09-.37-.24-.69-.43-.95-.19-.27-.43-.47-.71-.62-.29-.15-.61-.22-.99-.22s-.71,.07-.99,.22-.52,.36-.71,.62c-.19,.27-.33,.58-.43,.95-.09,.37-.14,.78-.14,1.22v2.02c0,.96,.19,1.71,.57,2.23,.38,.53,.95,.79,1.7,.79Zm-.9-4.03c0-.24,.09-.45,.27-.63,.18-.18,.39-.27,.63-.27s.45,.09,.63,.27,.27,.39,.27,.63-.09,.45-.27,.63c-.18,.18-.39,.27-.63,.27s-.45-.09-.63-.27-.27-.39-.27-.63Z"/><path class="cls-9" d="M491.74,623.62h2.28v6.86h1.51v1.09h-1.51v1.85h-1.18v-1.85h-4.54v-1.62l3.43-6.33Zm-2.42,6.69v.17h3.53v-6.36h-.17l-3.36,6.19Z"/><path class="cls-9" d="M499.49,632.63c0-.27,.1-.5,.29-.69s.42-.29,.69-.29,.5,.1,.69,.29,.29,.42,.29,.69-.1,.5-.29,.69-.42,.29-.69,.29-.5-.1-.69-.29-.29-.42-.29-.69Z"/></g><rect class="cls-7" x="12.19" y="103.75" width="124.85" height="425.4"/><line class="cls-2" x1="137.04" y1="322.87" x2="243.22" y2="322.87"/><g><line class="cls-2" x1="325.42" y1="103.75" x2="380.53" y2="103.75"/><polygon class="cls-10" points="379.87 98.81 379.87 108.68 384.8 103.75 379.87 98.81"/></g><g><line class="cls-2" x1="320.24" y1="322.87" x2="380.53" y2="322.87"/><polygon class="cls-10" points="379.87 317.93 379.87 327.8 384.8 322.87 379.87 317.93"/></g><g><line class="cls-2" x1="321.28" y1="488.82" x2="380.53" y2="488.82"/><polygon class="cls-10" points="379.87 483.88 379.87 493.75 384.8 488.82 379.87 483.88"/></g><g><line class="cls-2" x1="335.79" y1="652.62" x2="380.53" y2="652.62"/><polygon class="cls-10" points="379.87 647.68 379.87 657.55 384.8 652.62 379.87 647.68"/></g><polyline class="cls-2" points="235.96 103.75 172.23 103.75 172.23 488.82 241.15 488.82"/><polyline class="cls-2" points="73.96 529.15 73.96 652.62 221.77 652.62"/><g><path class="cls-9" d="M63.7,271.95c0-1.27,.3-2.25,.91-2.95,.61-.7,1.45-1.05,2.53-1.05s1.93,.35,2.53,1.05c.61,.7,.91,1.68,.91,2.95v2.18c0,1.31-.3,2.3-.91,2.98-.61,.68-1.45,1.02-2.53,1.02s-1.93-.34-2.53-1.02c-.61-.68-.91-1.67-.91-2.98v-2.18Zm3.44,5.12c.76,0,1.32-.26,1.7-.79,.38-.53,.57-1.27,.57-2.23v-2.02c0-.45-.05-.86-.14-1.22-.09-.37-.24-.69-.43-.95-.19-.27-.43-.47-.71-.62-.29-.15-.61-.22-.99-.22s-.71,.07-.99,.22-.52,.36-.71,.62c-.19,.27-.33,.58-.43,.95-.09,.37-.14,.78-.14,1.22v2.02c0,.96,.19,1.71,.57,2.23,.38,.53,.95,.79,1.7,.79Zm-.9-4.03c0-.24,.09-.45,.27-.63,.18-.18,.39-.27,.63-.27s.45,.09,.63,.27,.27,.39,.27,.63-.09,.45-.27,.63c-.18,.18-.39,.27-.63,.27s-.45-.09-.63-.27-.27-.39-.27-.63Z"/><path class="cls-9" d="M72.27,271.95c0-1.27,.3-2.25,.91-2.95,.61-.7,1.45-1.05,2.53-1.05s1.93,.35,2.53,1.05c.61,.7,.91,1.68,.91,2.95v2.18c0,1.31-.3,2.3-.91,2.98-.61,.68-1.45,1.02-2.53,1.02s-1.93-.34-2.53-1.02c-.61-.68-.91-1.67-.91-2.98v-2.18Zm3.44,5.12c.76,0,1.32-.26,1.7-.79,.38-.53,.57-1.27,.57-2.23v-2.02c0-.45-.05-.86-.14-1.22-.09-.37-.24-.69-.43-.95-.19-.27-.43-.47-.71-.62-.29-.15-.61-.22-.99-.22s-.71,.07-.99,.22-.52,.36-.71,.62c-.19,.27-.33,.58-.43,.95-.09,.37-.14,.78-.14,1.22v2.02c0,.96,.19,1.71,.57,2.23,.38,.53,.95,.79,1.7,.79Zm-.9-4.03c0-.24,.09-.45,.27-.63,.18-.18,.39-.27,.63-.27s.45,.09,.63,.27,.27,.39,.27,.63-.09,.45-.27,.63c-.18,.18-.39,.27-.63,.27s-.45-.09-.63-.27-.27-.39-.27-.63Z"/><path class="cls-9" d="M83.3,277.16c0-.27,.1-.5,.29-.69s.42-.29,.69-.29,.5,.1,.69,.29,.29,.42,.29,.69-.1,.5-.29,.69-.42,.29-.69,.29-.5-.1-.69-.29-.29-.42-.29-.69Z"/></g><g><path d="M96.39,300.61l-1.01-1.01-1.26,1.26c-1.68-2.86-4.47-4-8.32-4-6.69,0-10.18,3.44-10.18,13.33,0,3.36,.4,5.98,1.2,7.97l-1.61,1.61,1.01,1.01,1.26-1.26c1.68,2.86,4.47,4,8.32,4,6.69,0,10.18-3.44,10.18-13.33,0-3.36-.4-5.98-1.2-7.97l1.61-1.61Zm-17.96,9.58c0-4.12,.66-7.01,1.95-8.59,.67-.82,1.96-1.92,5.42-1.92s4.74,1.09,5.42,1.92c.31,.38,.58,.83,.81,1.35l-12.98,12.98c-.41-1.52-.61-3.44-.61-5.74Zm14.73,0c0,4.12-.66,7.01-1.95,8.59-.67,.82-1.96,1.92-5.42,1.92s-4.74-1.09-5.42-1.92c-.31-.38-.58-.83-.81-1.35l12.98-12.98c.41,1.52,.61,3.44,.61,5.74Z"/><path d="M70.06,305.52c-.58-.63-1.31-1.07-2.19-1.32-.88-.25-1.89-.37-3.03-.37-.74,0-1.45,.1-2.12,.3-.67,.2-1.28,.47-1.82,.8-.55,.33-1.02,.71-1.43,1.12-.41,.41-.74,.82-.99,1.25h-.19l-.64-2.59c-.06-.25-.28-.42-.54-.42h-4.14v2.42h2.79v16.18h2.86v-10.63c0-.98,.26-1.95,.8-2.77v-.02c.38-.56,.81-1.04,1.31-1.47,.49-.42,1.04-.76,1.65-1.02,.61-.26,1.23-.39,1.87-.39,1.75,0,2.96,.52,3.63,1.56,.67,1.04,1,2.59,1,4.64v10.09h2.94v-10.68c0-1.66-.15-3.03-.45-4.11s-.74-1.93-1.32-2.57Z"/></g><g><path d="M55.73,338.29c0-.36-.07-.68-.22-.96-.14-.28-.34-.51-.58-.69-.25-.18-.53-.32-.85-.42-.32-.1-.66-.14-1.01-.14-.31,0-.6,.04-.88,.12s-.53,.2-.74,.34-.39,.33-.52,.55-.19,.47-.19,.76v.1c0,.31,.06,.57,.19,.79,.13,.22,.32,.41,.57,.56,.25,.15,.56,.28,.94,.38,.37,.1,.81,.19,1.31,.26,1.17,.18,2.04,.53,2.59,1.03,.55,.51,.83,1.19,.83,2.04v.19c0,.48-.08,.92-.25,1.32-.17,.4-.41,.74-.74,1.03-.33,.29-.73,.51-1.21,.67-.48,.16-1.04,.24-1.66,.24-.71,0-1.35-.1-1.9-.31-.55-.21-1.01-.5-1.38-.86-.37-.37-.65-.8-.84-1.3-.19-.5-.29-1.04-.29-1.62v-.48h1.34v.38c0,.98,.27,1.72,.81,2.21,.54,.49,1.29,.74,2.25,.74,.83,0,1.46-.18,1.88-.55,.42-.37,.63-.86,.63-1.46v-.1c0-.59-.22-1.03-.65-1.34-.43-.31-1.13-.53-2.1-.67-.57-.07-1.07-.19-1.53-.34-.45-.15-.84-.36-1.16-.61-.32-.25-.57-.55-.74-.9-.17-.35-.26-.77-.26-1.25v-.19c0-.44,.09-.84,.27-1.2,.18-.36,.43-.68,.76-.94,.33-.27,.71-.47,1.17-.62,.45-.14,.95-.22,1.5-.22,.63,0,1.19,.09,1.69,.27,.5,.18,.91,.42,1.26,.73,.34,.3,.6,.66,.78,1.07,.18,.41,.26,.84,.26,1.29v.67h-1.34v-.58Z"/><path d="M59.75,335.06h7.87v1.25h-3.26v9.95h-1.34v-9.95h-3.26v-1.25Z"/><path d="M76.68,343.48h-4.8l-.82,2.78h-1.44l3.39-11.2h2.53l3.39,11.2h-1.44l-.82-2.78Zm-2.5-7.84l-1.94,6.59h4.06l-1.94-6.59h-.19Z"/><path d="M81.49,335.06h6.88v1.25h-5.54v3.71h5.44v1.25h-5.44v4.99h-1.34v-11.2Z"/><path d="M92.09,335.06h6.88v1.25h-5.54v3.71h5.44v1.25h-5.44v4.99h-1.34v-11.2Z"/></g><text class="cls-8" transform="translate(255.31 99.64)"><tspan x="0" y="0">reason</tspan><tspan x="-12.85" y="16.8">n0 exists</tspan></text><text class="cls-8" transform="translate(251.03 326.65)"><tspan x="0" y="0">support</tspan></text><text class="cls-8" transform="translate(255.31 482.51)"><tspan x="0" y="0">mutual</tspan><tspan x="-8.57" y="16.8">interest</tspan></text><text class="cls-8" transform="translate(242.46 648.53)"><tspan x="0" y="0">aligned &amp;</tspan><tspan x="-8.57" y="16.8">accountable</tspan></text><text class="cls-6" transform="translate(404.89 498.39)"><tspan x="0" y="0">COLLABORATORS</tspan></text><text class="cls-6" transform="translate(411.62 332.93)"><tspan x="0" y="0">CONTRIBUTORS</tspan></text><text class="cls-6" transform="translate(458.74 113.26)"><tspan x="0" y="0">USERS</tspan></text><text class="cls-6" transform="translate(411.62 662.72)"><tspan x="0" y="0">PARTNER ORGS</tspan></text></svg>