<?xml version="1.0" encoding="UTF-8"?><svg id="Layer_1" xmlns="http://www.w3.org/2000/svg" xmlns:xlink="http://www.w3.org/1999/xlink" viewBox="0 0 960 800"><defs><style>.cls-1,.cls-2,.cls-3,.cls-4{fill:none;}.cls-5{letter-spacing:-.02em;}.cls-6{font-family:SpaceGrotesk-Regular, 'Space Grotesk';font-size:16px;}.cls-6,.cls-7,.cls-8,.cls-9,.cls-10{fill:#fff;}.cls-11{letter-spacing:-.01em;}.cls-12{clip-path:url(#clippath);}.cls-13{letter-spacing:-.02em;}.cls-7{font-size:22px;}.cls-7,.cls-9,.cls-10{font-family:SpaceMono-Regular, 'Space Mono';}.cls-14{fill:#ff9c96;}.cls-15{fill:#e5e5e5;}.cls-16{letter-spacing:-.02em;}.cls-2{stroke:#e5e5e5;stroke-width:1.25px;}.cls-2,.cls-3,.cls-4{stroke-miterlimit:10;}.cls-17{clip-path:url(#clippath-1);}.cls-18{letter-spacing:0em;}.cls-19{letter-spacing:-.02em;}.cls-20{letter-spacing:0em;}.cls-21{letter-spacing:-.01em;}.cls-22{letter-spacing:-.01em;}.cls-23{letter-spacing:0em;}.cls-3{stroke:#ff9c96;}.cls-4{stroke:#fff;}.cls-24{letter-spacing:0em;}.cls-25{letter-spacing:-.01em;}.cls-9{font-size:14px;}.cls-26{letter-spacing:0em;}.cls-27{letter-spacing:-.02em;}.cls-28{letter-spacing:-.03em;}.cls-29{letter-spacing:-.03em;}.cls-30{letter-spacing:-.02em;}.cls-10{font-size:12px;}</style><clipPath id="clippath"><path class="cls-1" d="M627.26,407.29c-15.98-11.09-35.38-17.6-56.3-17.6s-40.32,6.51-56.3,17.6c15.98,11.09,35.38,17.6,56.3,17.6s40.32-6.51,56.3-17.6Z"/></clipPath><clipPath id="clippath-1"><path class="cls-1" d="M627.26,570.07c-15.98-11.09-35.38-17.6-56.3-17.6s-40.32,6.51-56.3,17.6c15.98,11.09,35.38,17.6,56.3,17.6s40.32-6.51,56.3-17.6Z"/></clipPath></defs><g class="cls-12"><g><line class="cls-3" x1="406.86" y1="453.16" x2="492.08" y2="371.82"/><line class="cls-3" x1="414.46" y1="453.16" x2="499.68" y2="371.82"/><line class="cls-3" x1="422.05" y1="453.16" x2="507.27" y2="371.82"/><line class="cls-3" x1="429.65" y1="453.16" x2="514.87" y2="371.82"/><line class="cls-3" x1="437.25" y1="453.16" x2="522.47" y2="371.82"/><line class="cls-3" x1="444.85" y1="453.16" x2="530.06" y2="371.82"/><line class="cls-3" x1="452.44" y1="453.16" x2="537.66" y2="371.82"/><line class="cls-3" x1="460.04" y1="453.16" x2="545.26" y2="371.82"/><line class="cls-3" x1="467.64" y1="453.16" x2="552.86" y2="371.82"/><line class="cls-3" x1="475.23" y1="453.16" x2="560.45" y2="371.82"/><line class="cls-3" x1="482.83" y1="453.16" x2="568.05" y2="371.82"/><line class="cls-3" x1="490.43" y1="453.16" x2="575.65" y2="371.82"/><line class="cls-3" x1="498.02" y1="453.16" x2="583.24" y2="371.82"/><line class="cls-3" x1="505.62" y1="453.16" x2="590.84" y2="371.82"/><line class="cls-3" x1="513.22" y1="453.16" x2="598.44" y2="371.82"/><line class="cls-3" x1="520.81" y1="453.16" x2="606.03" y2="371.82"/><line class="cls-3" x1="528.41" y1="453.16" x2="613.63" y2="371.82"/><line class="cls-3" x1="536.01" y1="453.16" x2="621.23" y2="371.82"/><line class="cls-3" x1="543.6" y1="453.16" x2="628.82" y2="371.82"/><line class="cls-3" x1="551.2" y1="453.16" x2="636.42" y2="371.82"/><line class="cls-3" x1="558.8" y1="453.16" x2="644.02" y2="371.82"/><line class="cls-3" x1="566.39" y1="453.16" x2="651.61" y2="371.82"/><line class="cls-3" x1="573.99" y1="453.16" x2="659.21" y2="371.82"/><line class="cls-3" x1="581.59" y1="453.16" x2="666.81" y2="371.82"/><line class="cls-3" x1="589.19" y1="453.16" x2="674.4" y2="371.82"/><line class="cls-3" x1="596.78" y1="453.16" x2="682" y2="371.82"/><line class="cls-3" x1="604.38" y1="453.16" x2="689.6" y2="371.82"/><line class="cls-3" x1="611.98" y1="453.16" x2="697.2" y2="371.82"/><line class="cls-3" x1="619.57" y1="453.16" x2="704.79" y2="371.82"/><line class="cls-3" x1="627.17" y1="453.16" x2="712.39" y2="371.82"/><line class="cls-3" x1="634.77" y1="453.16" x2="719.99" y2="371.82"/><line class="cls-3" x1="642.36" y1="453.16" x2="727.58" y2="371.82"/></g></g><g class="cls-17"><g><line class="cls-3" x1="406.86" y1="615.94" x2="492.08" y2="534.61"/><line class="cls-3" x1="414.46" y1="615.94" x2="499.68" y2="534.61"/><line class="cls-3" x1="422.05" y1="615.94" x2="507.27" y2="534.61"/><line class="cls-3" x1="429.65" y1="615.94" x2="514.87" y2="534.61"/><line class="cls-3" x1="437.25" y1="615.94" x2="522.47" y2="534.61"/><line class="cls-3" x1="444.85" y1="615.94" x2="530.06" y2="534.61"/><line class="cls-3" x1="452.44" y1="615.94" x2="537.66" y2="534.61"/><line class="cls-3" x1="460.04" y1="615.94" x2="545.26" y2="534.61"/><line class="cls-3" x1="467.64" y1="615.94" x2="552.86" y2="534.61"/><line class="cls-3" x1="475.23" y1="615.94" x2="560.45" y2="534.61"/><line class="cls-3" x1="482.83" y1="615.94" x2="568.05" y2="534.61"/><line class="cls-3" x1="490.43" y1="615.94" x2="575.65" y2="534.61"/><line class="cls-3" x1="498.02" y1="615.94" x2="583.24" y2="534.61"/><line class="cls-3" x1="505.62" y1="615.94" x2="590.84" y2="534.61"/><line class="cls-3" x1="513.22" y1="615.94" x2="598.44" y2="534.61"/><line class="cls-3" x1="520.81" y1="615.94" x2="606.03" y2="534.61"/><line class="cls-3" x1="528.41" y1="615.94" x2="613.63" y2="534.61"/><line class="cls-3" x1="536.01" y1="615.94" x2="621.23" y2="534.61"/><line class="cls-3" x1="543.6" y1="615.94" x2="628.82" y2="534.61"/><line class="cls-3" x1="551.2" y1="615.94" x2="636.42" y2="534.61"/><line class="cls-3" x1="558.8" y1="615.94" x2="644.02" y2="534.61"/><line class="cls-3" x1="566.39" y1="615.94" x2="651.61" y2="534.61"/><line class="cls-3" x1="573.99" y1="615.94" x2="659.21" y2="534.61"/><line class="cls-3" x1="581.59" y1="615.94" x2="666.81" y2="534.61"/><line class="cls-3" x1="589.19" y1="615.94" x2="674.4" y2="534.61"/><line class="cls-3" x1="596.78" y1="615.94" x2="682" y2="534.61"/><line class="cls-3" x1="604.38" y1="615.94" x2="689.6" y2="534.61"/><line class="cls-3" x1="611.98" y1="615.94" x2="697.2" y2="534.61"/><line class="cls-3" x1="619.57" y1="615.94" x2="704.79" y2="534.61"/><line class="cls-3" x1="627.17" y1="615.94" x2="712.39" y2="534.61"/><line class="cls-3" x1="634.77" y1="615.94" x2="719.99" y2="534.61"/><line class="cls-3" x1="642.36" y1="615.94" x2="727.58" y2="534.61"/></g></g><circle class="cls-4" cx="570.96" cy="488.82" r="98.85"/><circle class="cls-4" cx="570.96" cy="651.33" r="98.85"/><circle class="cls-4" cx="570.96" cy="326.3" r="98.85"/><circle class="cls-4" cx="570.96" cy="103.75" r="98.85"/><g><path class="cls-14" d="M559.89,79.36c0-1.27,.3-2.25,.91-2.95,.61-.7,1.45-1.05,2.53-1.05s1.93,.35,2.53,1.05c.61,.7,.91,1.68,.91,2.95v2.18c0,1.31-.3,2.3-.91,2.98-.61,.68-1.45,1.02-2.53,1.02s-1.93-.34-2.53-1.02c-.61-.68-.91-1.67-.91-2.98v-2.18Zm3.44,5.12c.76,0,1.32-.26,1.7-.79,.38-.53,.57-1.27,.57-2.23v-2.02c0-.45-.05-.86-.14-1.22-.09-.37-.24-.69-.43-.95-.19-.27-.43-.47-.71-.62-.29-.15-.61-.22-.99-.22s-.71,.07-.99,.22-.52,.36-.71,.62-.33,.58-.43,.95c-.09,.37-.14,.78-.14,1.22v2.02c0,.96,.19,1.71,.57,2.23,.38,.53,.95,.79,1.7,.79Zm-.9-4.03c0-.24,.09-.45,.27-.63,.18-.18,.39-.27,.63-.27s.45,.09,.63,.27c.18,.18,.27,.39,.27,.63s-.09,.45-.27,.63c-.18,.18-.39,.27-.63,.27s-.45-.09-.63-.27c-.18-.18-.27-.39-.27-.63Z"/><path class="cls-14" d="M571.39,84.26v-8.19h-.17l-1.61,3.68h-1.16v-.08l1.83-4.12h2.28v8.71h2.77v1.09h-6.72v-1.09h2.77Z"/><path class="cls-14" d="M579.49,84.57c0-.27,.1-.5,.29-.69,.19-.19,.42-.29,.69-.29s.5,.1,.69,.29c.19,.19,.29,.42,.29,.69s-.1,.5-.29,.69c-.19,.19-.42,.29-.69,.29s-.5-.1-.69-.29c-.19-.19-.29-.42-.29-.69Z"/></g><g><path class="cls-14" d="M559.89,296.02c0-1.27,.3-2.25,.91-2.95,.61-.7,1.45-1.05,2.53-1.05s1.93,.35,2.53,1.05c.61,.7,.91,1.68,.91,2.95v2.18c0,1.31-.3,2.3-.91,2.98-.61,.68-1.45,1.02-2.53,1.02s-1.93-.34-2.53-1.02c-.61-.68-.91-1.67-.91-2.98v-2.18Zm3.44,5.12c.76,0,1.32-.26,1.7-.79,.38-.53,.57-1.27,.57-2.23v-2.02c0-.45-.05-.86-.14-1.22-.09-.37-.24-.69-.43-.95-.19-.27-.43-.47-.71-.62-.29-.15-.61-.22-.99-.22s-.71,.07-.99,.22-.52,.36-.71,.62c-.19,.27-.33,.58-.43,.95-.09,.37-.14,.78-.14,1.22v2.02c0,.96,.19,1.71,.57,2.23,.38,.53,.95,.79,1.7,.79Zm-.9-4.03c0-.24,.09-.45,.27-.63,.18-.18,.39-.27,.63-.27s.45,.09,.63,.27,.27,.39,.27,.63-.09,.45-.27,.63c-.18,.18-.39,.27-.63,.27s-.45-.09-.63-.27-.27-.39-.27-.63Z"/><path class="cls-14" d="M575.24,300.92v1.09h-6.64v-1.68c0-.45,.07-.84,.22-1.17s.36-.62,.64-.85c.28-.24,.61-.44,1-.59,.39-.16,.83-.29,1.33-.41,.83-.19,1.43-.45,1.8-.8,.37-.34,.55-.77,.55-1.27v-.08c0-.25-.04-.5-.13-.74-.08-.24-.21-.46-.39-.66s-.4-.35-.68-.47c-.28-.12-.6-.17-.99-.17-.72,0-1.28,.22-1.67,.66-.4,.44-.59,1.02-.59,1.75v.62h-1.18v-.7c0-.45,.07-.88,.22-1.29,.15-.41,.37-.77,.66-1.09,.29-.32,.65-.57,1.08-.76,.43-.19,.92-.28,1.48-.28s1.06,.09,1.48,.26,.77,.4,1.05,.69c.28,.29,.49,.61,.62,.97,.13,.36,.2,.73,.2,1.1v.25c0,.75-.23,1.38-.7,1.91-.47,.53-1.21,.9-2.24,1.13-.9,.2-1.55,.45-1.97,.78s-.63,.79-.63,1.41v.42h5.46Z"/><path class="cls-14" d="M579.49,301.23c0-.27,.1-.5,.29-.69s.42-.29,.69-.29,.5,.1,.69,.29,.29,.42,.29,.69-.1,.5-.29,.69-.42,.29-.69,.29-.5-.1-.69-.29-.29-.42-.29-.69Z"/></g><g><path class="cls-14" d="M559.89,463.94c0-1.27,.3-2.25,.91-2.95,.61-.7,1.45-1.05,2.53-1.05s1.93,.35,2.53,1.05c.61,.7,.91,1.68,.91,2.95v2.18c0,1.31-.3,2.3-.91,2.98-.61,.68-1.45,1.02-2.53,1.02s-1.93-.34-2.53-1.02c-.61-.68-.91-1.67-.91-2.98v-2.18Zm3.44,5.12c.76,0,1.32-.26,1.7-.79,.38-.53,.57-1.27,.57-2.23v-2.02c0-.45-.05-.86-.14-1.22-.09-.37-.24-.69-.43-.95-.19-.27-.43-.47-.71-.62-.29-.15-.61-.22-.99-.22s-.71,.07-.99,.22-.52,.36-.71,.62c-.19,.27-.33,.58-.43,.95-.09,.37-.14,.78-.14,1.22v2.02c0,.96,.19,1.71,.57,2.23,.38,.53,.95,.79,1.7,.79Zm-.9-4.03c0-.24,.09-.45,.27-.63,.18-.18,.39-.27,.63-.27s.45,.09,.63,.27,.27,.39,.27,.63-.09,.45-.27,.63c-.18,.18-.39,.27-.63,.27s-.45-.09-.63-.27-.27-.39-.27-.63Z"/><path class="cls-14" d="M570.94,465.06v-1.62l3.19-2.04v-.17h-5.54v-1.09h6.55v1.79l-3.19,2.04v.17h.56c.37,0,.73,.06,1.08,.18,.35,.12,.65,.3,.92,.53,.27,.23,.48,.52,.64,.86,.16,.34,.24,.74,.24,1.18v.25c0,.42-.08,.81-.25,1.18-.17,.36-.4,.68-.7,.94-.3,.27-.65,.48-1.06,.63-.41,.15-.85,.23-1.32,.23-.55,0-1.05-.08-1.48-.25s-.81-.4-1.12-.69-.54-.64-.71-1.04c-.16-.4-.25-.82-.25-1.27v-.76h1.18v.67c0,.35,.06,.67,.18,.95,.12,.28,.28,.51,.49,.7,.21,.19,.46,.34,.75,.44s.6,.15,.94,.15c.31,0,.59-.05,.86-.15,.27-.1,.5-.25,.69-.43,.2-.18,.35-.4,.46-.64,.11-.25,.17-.51,.17-.79v-.08c0-.59-.19-1.05-.56-1.38-.37-.33-.84-.5-1.4-.5h-1.32Z"/><path class="cls-14" d="M579.49,469.15c0-.27,.1-.5,.29-.69s.42-.29,.69-.29,.5,.1,.69,.29,.29,.42,.29,.69-.1,.5-.29,.69-.42,.29-.69,.29-.5-.1-.69-.29-.29-.42-.29-.69Z"/></g><g><path class="cls-14" d="M559.89,627.42c0-1.27,.3-2.25,.91-2.95,.61-.7,1.45-1.05,2.53-1.05s1.93,.35,2.53,1.05c.61,.7,.91,1.68,.91,2.95v2.18c0,1.31-.3,2.3-.91,2.98-.61,.68-1.45,1.02-2.53,1.02s-1.93-.34-2.53-1.02c-.61-.68-.91-1.67-.91-2.98v-2.18Zm3.44,5.12c.76,0,1.32-.26,1.7-.79,.38-.53,.57-1.27,.57-2.23v-2.02c0-.45-.05-.86-.14-1.22-.09-.37-.24-.69-.43-.95-.19-.27-.43-.47-.71-.62-.29-.15-.61-.22-.99-.22s-.71,.07-.99,.22-.52,.36-.71,.62c-.19,.27-.33,.58-.43,.95-.09,.37-.14,.78-.14,1.22v2.02c0,.96,.19,1.71,.57,2.23,.38,.53,.95,.79,1.7,.79Zm-.9-4.03c0-.24,.09-.45,.27-.63,.18-.18,.39-.27,.63-.27s.45,.09,.63,.27,.27,.39,.27,.63-.09,.45-.27,.63c-.18,.18-.39,.27-.63,.27s-.45-.09-.63-.27-.27-.39-.27-.63Z"/><path class="cls-14" d="M571.74,623.62h2.28v6.86h1.51v1.09h-1.51v1.85h-1.18v-1.85h-4.54v-1.62l3.43-6.33Zm-2.42,6.69v.17h3.53v-6.36h-.17l-3.36,6.19Z"/><path class="cls-14" d="M579.49,632.63c0-.27,.1-.5,.29-.69s.42-.29,.69-.29,.5,.1,.69,.29,.29,.42,.29,.69-.1,.5-.29,.69-.42,.29-.69,.29-.5-.1-.69-.29-.29-.42-.29-.69Z"/></g><rect class="cls-8" x="12.19" y="103.75" width="124.85" height="425.4"/><line class="cls-2" x1="137.04" y1="322.87" x2="323.22" y2="322.87"/><g><line class="cls-2" x1="405.42" y1="103.75" x2="460.53" y2="103.75"/><polygon class="cls-15" points="459.87 98.81 459.87 108.68 464.8 103.75 459.87 98.81"/></g><g><line class="cls-2" x1="400.24" y1="322.87" x2="460.53" y2="322.87"/><polygon class="cls-15" points="459.87 317.93 459.87 327.8 464.8 322.87 459.87 317.93"/></g><g><line class="cls-2" x1="401.28" y1="488.82" x2="460.53" y2="488.82"/><polygon class="cls-15" points="459.87 483.88 459.87 493.75 464.8 488.82 459.87 483.88"/></g><g><line class="cls-2" x1="415.79" y1="652.62" x2="460.53" y2="652.62"/><polygon class="cls-15" points="459.87 647.68 459.87 657.55 464.8 652.62 459.87 647.68"/></g><polyline class="cls-2" points="315.96 103.75 232.23 103.75 232.23 488.82 321.15 488.82"/><polyline class="cls-2" points="73.96 529.15 73.96 652.62 301.77 652.62"/><g><path class="cls-14" d="M63.7,271.95c0-1.27,.3-2.25,.91-2.95,.61-.7,1.45-1.05,2.53-1.05s1.93,.35,2.53,1.05c.61,.7,.91,1.68,.91,2.95v2.18c0,1.31-.3,2.3-.91,2.98-.61,.68-1.45,1.02-2.53,1.02s-1.93-.34-2.53-1.02c-.61-.68-.91-1.67-.91-2.98v-2.18Zm3.44,5.12c.76,0,1.32-.26,1.7-.79,.38-.53,.57-1.27,.57-2.23v-2.02c0-.45-.05-.86-.14-1.22-.09-.37-.24-.69-.43-.95-.19-.27-.43-.47-.71-.62-.29-.15-.61-.22-.99-.22s-.71,.07-.99,.22-.52,.36-.71,.62c-.19,.27-.33,.58-.43,.95-.09,.37-.14,.78-.14,1.22v2.02c0,.96,.19,1.71,.57,2.23,.38,.53,.95,.79,1.7,.79Zm-.9-4.03c0-.24,.09-.45,.27-.63,.18-.18,.39-.27,.63-.27s.45,.09,.63,.27,.27,.39,.27,.63-.09,.45-.27,.63c-.18,.18-.39,.27-.63,.27s-.45-.09-.63-.27-.27-.39-.27-.63Z"/><path class="cls-14" d="M72.27,271.95c0-1.27,.3-2.25,.91-2.95,.61-.7,1.45-1.05,2.53-1.05s1.93,.35,2.53,1.05c.61,.7,.91,1.68,.91,2.95v2.18c0,1.31-.3,2.3-.91,2.98-.61,.68-1.45,1.02-2.53,1.02s-1.93-.34-2.53-1.02c-.61-.68-.91-1.67-.91-2.98v-2.18Zm3.44,5.12c.76,0,1.32-.26,1.7-.79,.38-.53,.57-1.27,.57-2.23v-2.02c0-.45-.05-.86-.14-1.22-.09-.37-.24-.69-.43-.95-.19-.27-.43-.47-.71-.62-.29-.15-.61-.22-.99-.22s-.71,.07-.99,.22-.52,.36-.71,.62c-.19,.27-.33,.58-.43,.95-.09,.37-.14,.78-.14,1.22v2.02c0,.96,.19,1.71,.57,2.23,.38,.53,.95,.79,1.7,.79Zm-.9-4.03c0-.24,.09-.45,.27-.63,.18-.18,.39-.27,.63-.27s.45,.09,.63,.27,.27,.39,.27,.63-.09,.45-.27,.63c-.18,.18-.39,.27-.63,.27s-.45-.09-.63-.27-.27-.39-.27-.63Z"/><path class="cls-14" d="M83.3,277.16c0-.27,.1-.5,.29-.69s.42-.29,.69-.29,.5,.1,.69,.29,.29,.42,.29,.69-.1,.5-.29,.69-.42,.29-.69,.29-.5-.1-.69-.29-.29-.42-.29-.69Z"/></g><g><path d="M96.39,300.61l-1.01-1.01-1.26,1.26c-1.68-2.86-4.47-4-8.32-4-6.69,0-10.18,3.44-10.18,13.33,0,3.36,.4,5.98,1.2,7.97l-1.61,1.61,1.01,1.01,1.26-1.26c1.68,2.86,4.47,4,8.32,4,6.69,0,10.18-3.44,10.18-13.33,0-3.36-.4-5.98-1.2-7.97l1.61-1.61Zm-17.96,9.58c0-4.12,.66-7.01,1.95-8.59,.67-.82,1.96-1.92,5.42-1.92s4.74,1.09,5.42,1.92c.31,.38,.58,.83,.81,1.35l-12.98,12.98c-.41-1.52-.61-3.44-.61-5.74Zm14.73,0c0,4.12-.66,7.01-1.95,8.59-.67,.82-1.96,1.92-5.42,1.92s-4.74-1.09-5.42-1.92c-.31-.38-.58-.83-.81-1.35l12.98-12.98c.41,1.52,.61,3.44,.61,5.74Z"/><path d="M70.06,305.52c-.58-.63-1.31-1.07-2.19-1.32-.88-.25-1.89-.37-3.03-.37-.74,0-1.45,.1-2.12,.3-.67,.2-1.28,.47-1.82,.8-.55,.33-1.02,.71-1.43,1.12-.41,.41-.74,.82-.99,1.25h-.19l-.64-2.59c-.06-.25-.28-.42-.54-.42h-4.14v2.42h2.79v16.18h2.86v-10.63c0-.98,.26-1.95,.8-2.77v-.02c.38-.56,.81-1.04,1.31-1.47,.49-.42,1.04-.76,1.65-1.02,.61-.26,1.23-.39,1.87-.39,1.75,0,2.96,.52,3.63,1.56,.67,1.04,1,2.59,1,4.64v10.09h2.94v-10.68c0-1.66-.15-3.03-.45-4.11s-.74-1.93-1.32-2.57Z"/></g><g><path d="M55.73,338.29c0-.36-.07-.68-.22-.96-.14-.28-.34-.51-.58-.69-.25-.18-.53-.32-.85-.42-.32-.1-.66-.14-1.01-.14-.31,0-.6,.04-.88,.12s-.53,.2-.74,.34-.39,.33-.52,.55-.19,.47-.19,.76v.1c0,.31,.06,.57,.19,.79,.13,.22,.32,.41,.57,.56,.25,.15,.56,.28,.94,.38,.37,.1,.81,.19,1.31,.26,1.17,.18,2.04,.53,2.59,1.03,.55,.51,.83,1.19,.83,2.04v.19c0,.48-.08,.92-.25,1.32-.17,.4-.41,.74-.74,1.03-.33,.29-.73,.51-1.21,.67-.48,.16-1.04,.24-1.66,.24-.71,0-1.35-.1-1.9-.31-.55-.21-1.01-.5-1.38-.86-.37-.37-.65-.8-.84-1.3-.19-.5-.29-1.04-.29-1.62v-.48h1.34v.38c0,.98,.27,1.72,.81,2.21,.54,.49,1.29,.74,2.25,.74,.83,0,1.46-.18,1.88-.55,.42-.37,.63-.86,.63-1.46v-.1c0-.59-.22-1.03-.65-1.34-.43-.31-1.13-.53-2.1-.67-.57-.07-1.07-.19-1.53-.34-.45-.15-.84-.36-1.16-.61-.32-.25-.57-.55-.74-.9-.17-.35-.26-.77-.26-1.25v-.19c0-.44,.09-.84,.27-1.2,.18-.36,.43-.68,.76-.94,.33-.27,.71-.47,1.17-.62,.45-.14,.95-.22,1.5-.22,.63,0,1.19,.09,1.69,.27,.5,.18,.91,.42,1.26,.73,.34,.3,.6,.66,.78,1.07,.18,.41,.26,.84,.26,1.29v.67h-1.34v-.58Z"/><path d="M59.75,335.06h7.87v1.25h-3.26v9.95h-1.34v-9.95h-3.26v-1.25Z"/><path d="M76.68,343.48h-4.8l-.82,2.78h-1.44l3.39-11.2h2.53l3.39,11.2h-1.44l-.82-2.78Zm-2.5-7.84l-1.94,6.59h4.06l-1.94-6.59h-.19Z"/><path d="M81.49,335.06h6.88v1.25h-5.54v3.71h5.44v1.25h-5.44v4.99h-1.34v-11.2Z"/><path d="M92.09,335.06h6.88v1.25h-5.54v3.71h5.44v1.25h-5.44v4.99h-1.34v-11.2Z"/></g><text class="cls-6" transform="translate(694.46 98.64)"><tspan x="0" y="0">A</tspan><tspan class="cls-23" x="10.08" y="0">n</tspan><tspan x="19.76" y="0">yone </tspan><tspan class="cls-19" x="62.83" y="0">r</tspan><tspan class="cls-26" x="68.58" y="0">elying on </tspan><tspan x="0" y="19.2">som</tspan><tspan class="cls-16" x="32.08" y="19.2">e</tspan><tspan class="cls-27" x="41.26" y="19.2">/</tspan><tspan x="46.94" y="19.2">all </tspan><tspan class="cls-13" x="68.09" y="19.2">o</tspan><tspan class="cls-26" x="77.66" y="19.2">f I</tspan><tspan class="cls-19" x="92.75" y="19.2">r</tspan><tspan x="98.5" y="19.2">oh</tspan></text><text class="cls-6" transform="translate(694.46 309)"><tspan x="0" y="0">A</tspan><tspan class="cls-23" x="10.08" y="0">n</tspan><tspan x="19.76" y="0">yone </tspan><tspan class="cls-11" x="62.83" y="0">w</tspan><tspan x="75.49" y="0">orking with us </tspan><tspan x="0" y="19.2">on s</tspan><tspan class="cls-13" x="32.24" y="19.2">o</tspan><tspan class="cls-30" x="41.81" y="19.2">f</tspan><tspan class="cls-26" x="48.61" y="19.2">t</tspan><tspan class="cls-18" x="55.97" y="19.2">w</tspan><tspan class="cls-24" x="68.64" y="19.2">a</tspan><tspan class="cls-19" x="77.84" y="19.2">r</tspan><tspan class="cls-26" x="83.58" y="19.2">e</tspan></text><text class="cls-10" transform="translate(694.46 353.66)"><tspan x="0" y="0">Platform: Github</tspan></text><text class="cls-6" transform="translate(694.46 472.76)"><tspan x="0" y="0">Nomin</tspan><tspan class="cls-28" x="48" y="0">a</tspan><tspan class="cls-5" x="56.69" y="0">t</tspan><tspan class="cls-26" x="63.76" y="0">ed colle</tspan><tspan class="cls-25" x="124.42" y="0">a</tspan><tspan x="133.39" y="0">gues</tspan><tspan x="0" y="19.2">doing </tspan><tspan class="cls-19" x="48.3" y="19.2">r</tspan><tspan x="54.05" y="19.2">el</tspan><tspan class="cls-28" x="67.44" y="19.2">a</tspan><tspan class="cls-5" x="76.13" y="19.2">t</tspan><tspan x="83.2" y="19.2">ed </tspan><tspan class="cls-19" x="107.09" y="19.2">r</tspan><tspan class="cls-26" x="112.83" y="19.2">esea</tspan><tspan class="cls-19" x="149.41" y="19.2">r</tspan><tspan x="155.15" y="19.2">ch</tspan></text><text class="cls-6" transform="translate(694.46 642.51)"><tspan x="0" y="0">Other o</tspan><tspan class="cls-19" x="57.38" y="0">r</tspan><tspan class="cls-26" x="63.12" y="0">gs </tspan><tspan class="cls-11" x="85.93" y="0">w</tspan><tspan class="cls-26" x="98.59" y="0">e a</tspan><tspan class="cls-19" x="121.38" y="0">r</tspan><tspan x="127.12" y="0">e </tspan><tspan class="cls-21" x="140.7" y="0">s</tspan><tspan x="148.96" y="0">t</tspan><tspan class="cls-30" x="156.32" y="0">r</tspan><tspan class="cls-29" x="162.08" y="0">a</tspan><tspan class="cls-16" x="170.77" y="0">t</tspan><tspan x="177.84" y="0">egically</tspan><tspan x="0" y="19.2">aligned with and </tspan><tspan class="cls-23" x="132.45" y="19.2">m</tspan><tspan x="146.08" y="19.2">utually</tspan><tspan class="cls-25" x="0" y="38.4">a</tspan><tspan x="8.98" y="38.4">ccou</tspan><tspan class="cls-22" x="47.79" y="38.4">n</tspan><tspan class="cls-20" x="57.38" y="38.4">t</tspan><tspan x="64.69" y="38.4">able </tspan><tspan class="cls-16" x="101.7" y="38.4">t</tspan><tspan x="108.77" y="38.4">o</tspan></text><text class="cls-10" transform="translate(694.46 517.42)"><tspan x="0" y="0">Platform: Discord</tspan></text><text class="cls-9" transform="translate(335.31 99.64)"><tspan x="0" y="0">reason</tspan><tspan x="-12.85" y="16.8">n0 exists</tspan></text><text class="cls-9" transform="translate(331.03 326.65)"><tspan x="0" y="0">support</tspan></text><text class="cls-9" transform="translate(335.31 482.51)"><tspan x="0" y="0">mutual</tspan><tspan x="-8.57" y="16.8">interest</tspan></text><text class="cls-9" transform="translate(322.46 648.53)"><tspan x="0" y="0">aligned &amp;</tspan><tspan x="-8.57" y="16.8">accountable</tspan></text><text class="cls-7" transform="translate(484.89 498.39)"><tspan x="0" y="0">COLLABORATORS</tspan></text><text class="cls-7" transform="translate(491.62 332.93)"><tspan x="0" y="0">CONTRIBUTORS</tspan></text><text class="cls-7" transform="translate(538.74 113.26)"><tspan x="0" y="0">USERS</tspan></text><text class="cls-7" transform="translate(491.62 662.72)"><tspan x="0" y="0">PARTNER ORGS</tspan></text></svg>