<?xml version="1.0" encoding="UTF-8"?><svg id="Layer_1" xmlns="http://www.w3.org/2000/svg" xmlns:xlink="http://www.w3.org/1999/xlink" viewBox="0 0 667.48 765.74"><defs><style>.cls-1,.cls-2,.cls-3,.cls-4{fill:none;}.cls-2{stroke-width:1.5px;}.cls-2,.cls-3,.cls-4{stroke:#2b2b2b;stroke-miterlimit:10;}.cls-5{clip-path:url(#clippath);}.cls-6{fill:#fff;}.cls-7{fill:#2b2b2b;}.cls-3{stroke-width:1.25px;}.cls-8{clip-path:url(#clippath-1);}</style><clipPath id="clippath"><path class="cls-1" d="M621,415.16c-15.98-11.09-35.38-17.6-56.3-17.6s-40.32,6.51-56.3,17.6c15.98,11.09,35.38,17.6,56.3,17.6s40.32-6.51,56.3-17.6Z"/></clipPath><clipPath id="clippath-1"><path class="cls-1" d="M621,577.94c-15.98-11.09-35.38-17.6-56.3-17.6s-40.32,6.51-56.3,17.6c15.98,11.09,35.38,17.6,56.3,17.6s40.32-6.51,56.3-17.6Z"/></clipPath></defs><circle class="cls-2" cx="564.7" cy="496.69" r="98.85"/><circle class="cls-2" cx="564.7" cy="659.2" r="98.85"/><circle class="cls-2" cx="564.7" cy="334.17" r="98.85"/><g class="cls-5"><g><line class="cls-4" x1="400.6" y1="461.03" x2="485.82" y2="379.69"/><line class="cls-4" x1="408.2" y1="461.03" x2="493.42" y2="379.69"/><line class="cls-4" x1="415.8" y1="461.03" x2="501.01" y2="379.69"/><line class="cls-4" x1="423.39" y1="461.03" x2="508.61" y2="379.69"/><line class="cls-4" x1="430.99" y1="461.03" x2="516.21" y2="379.69"/><line class="cls-4" x1="438.59" y1="461.03" x2="523.81" y2="379.69"/><line class="cls-4" x1="446.18" y1="461.03" x2="531.4" y2="379.69"/><line class="cls-4" x1="453.78" y1="461.03" x2="539" y2="379.69"/><line class="cls-4" x1="461.38" y1="461.03" x2="546.6" y2="379.69"/><line class="cls-4" x1="468.97" y1="461.03" x2="554.19" y2="379.69"/><line class="cls-4" x1="476.57" y1="461.03" x2="561.79" y2="379.69"/><line class="cls-4" x1="484.17" y1="461.03" x2="569.39" y2="379.69"/><line class="cls-4" x1="491.76" y1="461.03" x2="576.98" y2="379.69"/><line class="cls-4" x1="499.36" y1="461.03" x2="584.58" y2="379.69"/><line class="cls-4" x1="506.96" y1="461.03" x2="592.18" y2="379.69"/><line class="cls-4" x1="514.55" y1="461.03" x2="599.77" y2="379.69"/><line class="cls-4" x1="522.15" y1="461.03" x2="607.37" y2="379.69"/><line class="cls-4" x1="529.75" y1="461.03" x2="614.97" y2="379.69"/><line class="cls-4" x1="537.34" y1="461.03" x2="622.56" y2="379.69"/><line class="cls-4" x1="544.94" y1="461.03" x2="630.16" y2="379.69"/><line class="cls-4" x1="552.54" y1="461.03" x2="637.76" y2="379.69"/><line class="cls-4" x1="560.14" y1="461.03" x2="645.35" y2="379.69"/><line class="cls-4" x1="567.73" y1="461.03" x2="652.95" y2="379.69"/><line class="cls-4" x1="575.33" y1="461.03" x2="660.55" y2="379.69"/><line class="cls-4" x1="582.93" y1="461.03" x2="668.15" y2="379.69"/><line class="cls-4" x1="590.52" y1="461.03" x2="675.74" y2="379.69"/><line class="cls-4" x1="598.12" y1="461.03" x2="683.34" y2="379.69"/><line class="cls-4" x1="605.72" y1="461.03" x2="690.94" y2="379.69"/><line class="cls-4" x1="613.31" y1="461.03" x2="698.53" y2="379.69"/><line class="cls-4" x1="620.91" y1="461.03" x2="706.13" y2="379.69"/><line class="cls-4" x1="628.51" y1="461.03" x2="713.73" y2="379.69"/><line class="cls-4" x1="636.1" y1="461.03" x2="721.32" y2="379.69"/></g></g><g class="cls-8"><g><line class="cls-4" x1="400.6" y1="623.81" x2="485.82" y2="542.48"/><line class="cls-4" x1="408.2" y1="623.81" x2="493.42" y2="542.48"/><line class="cls-4" x1="415.8" y1="623.81" x2="501.01" y2="542.48"/><line class="cls-4" x1="423.39" y1="623.81" x2="508.61" y2="542.48"/><line class="cls-4" x1="430.99" y1="623.81" x2="516.21" y2="542.48"/><line class="cls-4" x1="438.59" y1="623.81" x2="523.81" y2="542.48"/><line class="cls-4" x1="446.18" y1="623.81" x2="531.4" y2="542.48"/><line class="cls-4" x1="453.78" y1="623.81" x2="539" y2="542.48"/><line class="cls-4" x1="461.38" y1="623.81" x2="546.6" y2="542.48"/><line class="cls-4" x1="468.97" y1="623.81" x2="554.19" y2="542.48"/><line class="cls-4" x1="476.57" y1="623.81" x2="561.79" y2="542.48"/><line class="cls-4" x1="484.17" y1="623.81" x2="569.39" y2="542.48"/><line class="cls-4" x1="491.76" y1="623.81" x2="576.98" y2="542.48"/><line class="cls-4" x1="499.36" y1="623.81" x2="584.58" y2="542.48"/><line class="cls-4" x1="506.96" y1="623.81" x2="592.18" y2="542.48"/><line class="cls-4" x1="514.55" y1="623.81" x2="599.77" y2="542.48"/><line class="cls-4" x1="522.15" y1="623.81" x2="607.37" y2="542.48"/><line class="cls-4" x1="529.75" y1="623.81" x2="614.97" y2="542.48"/><line class="cls-4" x1="537.34" y1="623.81" x2="622.56" y2="542.48"/><line class="cls-4" x1="544.94" y1="623.81" x2="630.16" y2="542.48"/><line class="cls-4" x1="552.54" y1="623.81" x2="637.76" y2="542.48"/><line class="cls-4" x1="560.14" y1="623.81" x2="645.35" y2="542.48"/><line class="cls-4" x1="567.73" y1="623.81" x2="652.95" y2="542.48"/><line class="cls-4" x1="575.33" y1="623.81" x2="660.55" y2="542.48"/><line class="cls-4" x1="582.93" y1="623.81" x2="668.15" y2="542.48"/><line class="cls-4" x1="590.52" y1="623.81" x2="675.74" y2="542.48"/><line class="cls-4" x1="598.12" y1="623.81" x2="683.34" y2="542.48"/><line class="cls-4" x1="605.72" y1="623.81" x2="690.94" y2="542.48"/><line class="cls-4" x1="613.31" y1="623.81" x2="698.53" y2="542.48"/><line class="cls-4" x1="620.91" y1="623.81" x2="706.13" y2="542.48"/><line class="cls-4" x1="628.51" y1="623.81" x2="713.73" y2="542.48"/><line class="cls-4" x1="636.1" y1="623.81" x2="721.32" y2="542.48"/></g></g><circle class="cls-2" cx="564.7" cy="111.62" r="98.85"/><g><path class="cls-7" d="M492.51,336.01c.57,0,1.06-.1,1.47-.29,.41-.19,.74-.45,1-.78,.26-.33,.45-.7,.58-1.12,.13-.42,.19-.86,.19-1.33v-.24h1.68v.24c0,.71-.11,1.37-.32,1.99s-.53,1.16-.94,1.62c-.41,.46-.93,.82-1.54,1.08s-1.32,.39-2.12,.39c-1.55,0-2.75-.49-3.62-1.46-.87-.97-1.3-2.39-1.3-4.26v-3.12c0-1.81,.43-3.22,1.3-4.22,.87-1,2.07-1.5,3.62-1.5,.8,0,1.51,.13,2.12,.39,.61,.26,1.13,.62,1.54,1.08,.41,.46,.73,1,.94,1.62s.32,1.28,.32,1.99v.24h-1.68v-.24c-.01-.45-.08-.89-.21-1.32-.13-.43-.32-.8-.58-1.13-.26-.33-.59-.59-.99-.78-.4-.19-.89-.29-1.46-.29-1.08,0-1.89,.39-2.43,1.18-.54,.79-.81,1.82-.81,3.1v2.88c0,1.37,.27,2.43,.81,3.17,.54,.74,1.35,1.11,2.43,1.11Z"/><path class="cls-7" d="M500.75,328.72c0-1.81,.43-3.22,1.3-4.22,.87-1,2.07-1.5,3.62-1.5s2.75,.5,3.62,1.5c.87,1,1.3,2.41,1.3,4.22v3.12c0,1.87-.43,3.29-1.3,4.26-.87,.97-2.07,1.46-3.62,1.46s-2.75-.49-3.62-1.46c-.87-.97-1.3-2.39-1.3-4.26v-3.12Zm4.92,7.28c1.08,0,1.89-.37,2.43-1.11,.54-.74,.81-1.8,.81-3.17v-2.88c0-1.28-.27-2.31-.81-3.1s-1.35-1.18-2.43-1.18-1.89,.39-2.43,1.18-.81,1.82-.81,3.1v2.88c0,1.37,.27,2.43,.81,3.17,.54,.74,1.35,1.11,2.43,1.11Z"/><path class="cls-7" d="M521.65,336.56h.24v-13.28h1.68v14h-3.36l-4.04-13.28h-.24v13.28h-1.68v-14h3.36l4.04,13.28Z"/><path class="cls-7" d="M527.22,323.29h9.84v1.56h-4.08v12.44h-1.68v-12.44h-4.08v-1.56Z"/><path class="cls-7" d="M549.76,337.29h-1.68v-4.68c0-.35-.08-.61-.24-.8-.16-.19-.44-.28-.84-.28h-4.36v5.76h-1.68v-14h5c.72,0,1.35,.1,1.88,.31,.53,.21,.98,.48,1.33,.83,.35,.35,.62,.75,.8,1.21s.27,.94,.27,1.45v.6c0,.52-.14,1.04-.43,1.56-.29,.52-.73,.92-1.33,1.2v.24c.4,.07,.71,.23,.94,.48s.34,.61,.34,1.08v5.04Zm-7.12-7.32h3.12c.95,0,1.65-.2,2.11-.61,.46-.41,.69-1,.69-1.79v-.36c0-.71-.23-1.28-.69-1.71s-1.16-.65-2.11-.65h-3.12v5.12Z"/><path class="cls-7" d="M554.18,323.29h8.88v1.56h-3.6v10.88h3.6v1.56h-8.88v-1.56h3.6v-10.88h-3.6v-1.56Z"/><path class="cls-7" d="M566.88,335.72h1.2v-10.88h-1.2v-1.56h5.66c.67,0,1.26,.09,1.77,.28,.51,.19,.95,.44,1.3,.76,.35,.32,.62,.7,.8,1.15,.18,.45,.27,.93,.27,1.45v.24c0,.39-.06,.74-.18,1.06-.12,.32-.29,.61-.5,.86s-.46,.47-.75,.65c-.29,.18-.6,.32-.93,.41v.24c.67,.19,1.23,.54,1.68,1.07s.68,1.17,.68,1.93v.24c0,.52-.09,1-.27,1.45-.18,.45-.45,.83-.8,1.16-.35,.33-.79,.58-1.3,.77-.51,.19-1.1,.28-1.77,.28h-5.66v-1.56Zm2.88-6.24h2.72c.8,0,1.43-.21,1.9-.62s.7-.98,.7-1.7v-.12c0-.68-.25-1.22-.74-1.61-.49-.39-1.13-.59-1.92-.59h-2.66v4.64Zm0,6.24h2.66c.79,0,1.43-.2,1.92-.59,.49-.39,.74-.94,.74-1.63v-.12c0-.72-.23-1.29-.7-1.71s-1.1-.63-1.9-.63h-2.72v4.68Z"/><path class="cls-7" d="M581.98,323.29v9.28c0,1.13,.26,1.99,.79,2.57,.53,.58,1.3,.87,2.33,.87s1.8-.29,2.33-.87c.53-.58,.79-1.44,.79-2.57v-9.28h1.68v9.28c0,1.63-.43,2.87-1.28,3.72s-2.03,1.28-3.52,1.28-2.67-.43-3.52-1.28-1.28-2.09-1.28-3.72v-9.28h1.68Z"/><path class="cls-7" d="M593.42,323.29h9.84v1.56h-4.08v12.44h-1.68v-12.44h-4.08v-1.56Z"/><path class="cls-7" d="M606.67,328.72c0-1.81,.43-3.22,1.3-4.22,.87-1,2.07-1.5,3.62-1.5s2.75,.5,3.62,1.5c.87,1,1.3,2.41,1.3,4.22v3.12c0,1.87-.43,3.29-1.3,4.26-.87,.97-2.07,1.46-3.62,1.46s-2.75-.49-3.62-1.46c-.87-.97-1.3-2.39-1.3-4.26v-3.12Zm4.92,7.28c1.08,0,1.89-.37,2.43-1.11,.54-.74,.81-1.8,.81-3.17v-2.88c0-1.28-.27-2.31-.81-3.1s-1.35-1.18-2.43-1.18-1.89,.39-2.43,1.18-.81,1.82-.81,3.1v2.88c0,1.37,.27,2.43,.81,3.17,.54,.74,1.35,1.11,2.43,1.11Z"/><path class="cls-7" d="M629.21,337.29h-1.68v-4.68c0-.35-.08-.61-.24-.8-.16-.19-.44-.28-.84-.28h-4.36v5.76h-1.68v-14h5c.72,0,1.35,.1,1.88,.31,.53,.21,.98,.48,1.33,.83,.35,.35,.62,.75,.8,1.21s.27,.94,.27,1.45v.6c0,.52-.14,1.04-.43,1.56-.29,.52-.73,.92-1.33,1.2v.24c.4,.07,.71,.23,.94,.48s.34,.61,.34,1.08v5.04Zm-7.12-7.32h3.12c.95,0,1.65-.2,2.11-.61,.46-.41,.69-1,.69-1.79v-.36c0-.71-.23-1.28-.69-1.71s-1.16-.65-2.11-.65h-3.12v5.12Z"/><path class="cls-7" d="M641.36,327.33c0-.45-.09-.85-.27-1.2-.18-.35-.42-.63-.73-.86-.31-.23-.66-.4-1.06-.52-.4-.12-.82-.18-1.26-.18-.39,0-.75,.05-1.1,.15s-.66,.24-.93,.43c-.27,.19-.49,.42-.65,.69s-.24,.59-.24,.95v.12c0,.39,.08,.72,.24,.99,.16,.27,.4,.51,.71,.7s.7,.35,1.17,.48,1.01,.24,1.64,.33c1.47,.23,2.55,.66,3.24,1.29,.69,.63,1.04,1.48,1.04,2.55v.24c0,.6-.1,1.15-.31,1.65-.21,.5-.51,.93-.92,1.29-.41,.36-.91,.64-1.51,.84-.6,.2-1.29,.3-2.08,.3-.89,0-1.68-.13-2.37-.39-.69-.26-1.26-.62-1.72-1.08s-.81-1-1.05-1.62-.36-1.3-.36-2.03v-.6h1.68v.48c0,1.23,.34,2.15,1.01,2.76s1.61,.92,2.81,.92c1.04,0,1.82-.23,2.35-.69,.53-.46,.79-1.07,.79-1.83v-.12c0-.73-.27-1.29-.81-1.68-.54-.39-1.42-.67-2.63-.84-.71-.09-1.34-.24-1.91-.43-.57-.19-1.05-.45-1.45-.76-.4-.31-.71-.69-.92-1.13-.21-.44-.32-.96-.32-1.56v-.24c0-.55,.11-1.05,.34-1.5,.23-.45,.54-.85,.95-1.18,.41-.33,.89-.59,1.46-.77,.57-.18,1.19-.27,1.87-.27,.79,0,1.49,.11,2.11,.34,.62,.23,1.14,.53,1.57,.91s.75,.83,.97,1.34c.22,.51,.33,1.05,.33,1.61v.84h-1.68v-.72Z"/></g><g><path class="cls-7" d="M485.88,501.41c.57,0,1.06-.1,1.47-.29,.41-.19,.74-.45,1-.78,.26-.33,.45-.7,.58-1.12,.13-.42,.19-.86,.19-1.33v-.24h1.68v.24c0,.71-.11,1.37-.32,1.99s-.53,1.16-.94,1.62c-.41,.46-.93,.82-1.54,1.08s-1.32,.39-2.12,.39c-1.55,0-2.75-.49-3.62-1.46-.87-.97-1.3-2.39-1.3-4.26v-3.12c0-1.81,.43-3.22,1.3-4.22,.87-1,2.07-1.5,3.62-1.5,.8,0,1.51,.13,2.12,.39,.61,.26,1.13,.62,1.54,1.08,.41,.46,.73,1,.94,1.62s.32,1.28,.32,1.99v.24h-1.68v-.24c-.01-.45-.08-.89-.21-1.32-.13-.43-.32-.8-.58-1.13-.26-.33-.59-.59-.99-.78-.4-.19-.89-.29-1.46-.29-1.08,0-1.89,.39-2.43,1.18-.54,.79-.81,1.82-.81,3.1v2.88c0,1.37,.27,2.43,.81,3.17,.54,.74,1.35,1.11,2.43,1.11Z"/><path class="cls-7" d="M494.13,494.13c0-1.81,.43-3.22,1.3-4.22,.87-1,2.07-1.5,3.62-1.5s2.75,.5,3.62,1.5c.87,1,1.3,2.41,1.3,4.22v3.12c0,1.87-.43,3.29-1.3,4.26-.87,.97-2.07,1.46-3.62,1.46s-2.75-.49-3.62-1.46c-.87-.97-1.3-2.39-1.3-4.26v-3.12Zm4.92,7.28c1.08,0,1.89-.37,2.43-1.11,.54-.74,.81-1.8,.81-3.17v-2.88c0-1.28-.27-2.31-.81-3.1s-1.35-1.18-2.43-1.18-1.89,.39-2.43,1.18-.81,1.82-.81,3.1v2.88c0,1.37,.27,2.43,.81,3.17,.54,.74,1.35,1.11,2.43,1.11Z"/><path class="cls-7" d="M507.9,488.69h1.68v12.44h7.32v1.56h-9v-14Z"/><path class="cls-7" d="M521.14,488.69h1.68v12.44h7.32v1.56h-9v-14Z"/><path class="cls-7" d="M541.76,499.21h-6l-1.02,3.48h-1.8l4.24-14h3.16l4.24,14h-1.8l-1.02-3.48Zm-3.12-9.8l-2.42,8.24h5.08l-2.42-8.24h-.24Z"/><path class="cls-7" d="M547.02,501.13h1.2v-10.88h-1.2v-1.56h5.66c.67,0,1.26,.09,1.77,.28,.51,.19,.95,.44,1.3,.76,.35,.32,.62,.7,.8,1.15,.18,.45,.27,.93,.27,1.45v.24c0,.39-.06,.74-.18,1.06-.12,.32-.29,.61-.5,.86s-.46,.47-.75,.65c-.29,.18-.6,.32-.93,.41v.24c.67,.19,1.23,.54,1.68,1.07s.68,1.17,.68,1.93v.24c0,.52-.09,1-.27,1.45-.18,.45-.45,.83-.8,1.16-.35,.33-.79,.58-1.3,.77-.51,.19-1.1,.28-1.77,.28h-5.66v-1.56Zm2.88-6.24h2.72c.8,0,1.43-.21,1.9-.62s.7-.98,.7-1.7v-.12c0-.68-.25-1.22-.74-1.61-.49-.39-1.13-.59-1.92-.59h-2.66v4.64Zm0,6.24h2.66c.79,0,1.43-.2,1.92-.59,.49-.39,.74-.94,.74-1.63v-.12c0-.72-.23-1.29-.7-1.71s-1.1-.63-1.9-.63h-2.72v4.68Z"/><path class="cls-7" d="M560.33,494.13c0-1.81,.43-3.22,1.3-4.22,.87-1,2.07-1.5,3.62-1.5s2.75,.5,3.62,1.5c.87,1,1.3,2.41,1.3,4.22v3.12c0,1.87-.43,3.29-1.3,4.26-.87,.97-2.07,1.46-3.62,1.46s-2.75-.49-3.62-1.46c-.87-.97-1.3-2.39-1.3-4.26v-3.12Zm4.92,7.28c1.08,0,1.89-.37,2.43-1.11,.54-.74,.81-1.8,.81-3.17v-2.88c0-1.28-.27-2.31-.81-3.1s-1.35-1.18-2.43-1.18-1.89,.39-2.43,1.18-.81,1.82-.81,3.1v2.88c0,1.37,.27,2.43,.81,3.17,.54,.74,1.35,1.11,2.43,1.11Z"/><path class="cls-7" d="M582.86,502.69h-1.68v-4.68c0-.35-.08-.61-.24-.8-.16-.19-.44-.28-.84-.28h-4.36v5.76h-1.68v-14h5c.72,0,1.35,.1,1.88,.31,.53,.21,.98,.48,1.33,.83,.35,.35,.62,.75,.8,1.21s.27,.94,.27,1.45v.6c0,.52-.14,1.04-.43,1.56-.29,.52-.73,.92-1.33,1.2v.24c.4,.07,.71,.23,.94,.48s.34,.61,.34,1.08v5.04Zm-7.12-7.32h3.12c.95,0,1.65-.2,2.11-.61,.46-.41,.69-1,.69-1.79v-.36c0-.71-.23-1.28-.69-1.71s-1.16-.65-2.11-.65h-3.12v5.12Z"/><path class="cls-7" d="M594.72,499.21h-6l-1.02,3.48h-1.8l4.24-14h3.16l4.24,14h-1.8l-1.02-3.48Zm-3.12-9.8l-2.42,8.24h5.08l-2.42-8.24h-.24Z"/><path class="cls-7" d="M600.05,488.69h9.84v1.56h-4.08v12.44h-1.68v-12.44h-4.08v-1.56Z"/><path class="cls-7" d="M613.28,494.13c0-1.81,.43-3.22,1.3-4.22,.87-1,2.07-1.5,3.62-1.5s2.75,.5,3.62,1.5c.87,1,1.3,2.41,1.3,4.22v3.12c0,1.87-.43,3.29-1.3,4.26-.87,.97-2.07,1.46-3.62,1.46s-2.75-.49-3.62-1.46c-.87-.97-1.3-2.39-1.3-4.26v-3.12Zm4.92,7.28c1.08,0,1.89-.37,2.43-1.11,.54-.74,.81-1.8,.81-3.17v-2.88c0-1.28-.27-2.31-.81-3.1s-1.35-1.18-2.43-1.18-1.89,.39-2.43,1.18-.81,1.82-.81,3.1v2.88c0,1.37,.27,2.43,.81,3.17,.54,.74,1.35,1.11,2.43,1.11Z"/><path class="cls-7" d="M635.82,502.69h-1.68v-4.68c0-.35-.08-.61-.24-.8-.16-.19-.44-.28-.84-.28h-4.36v5.76h-1.68v-14h5c.72,0,1.35,.1,1.88,.31,.53,.21,.98,.48,1.33,.83,.35,.35,.62,.75,.8,1.21s.27,.94,.27,1.45v.6c0,.52-.14,1.04-.43,1.56-.29,.52-.73,.92-1.33,1.2v.24c.4,.07,.71,.23,.94,.48s.34,.61,.34,1.08v5.04Zm-7.12-7.32h3.12c.95,0,1.65-.2,2.11-.61,.46-.41,.69-1,.69-1.79v-.36c0-.71-.23-1.28-.69-1.71s-1.16-.65-2.11-.65h-3.12v5.12Z"/><path class="cls-7" d="M647.98,492.73c0-.45-.09-.85-.27-1.2-.18-.35-.42-.63-.73-.86-.31-.23-.66-.4-1.06-.52-.4-.12-.82-.18-1.26-.18-.39,0-.75,.05-1.1,.15s-.66,.24-.93,.43c-.27,.19-.49,.42-.65,.69s-.24,.59-.24,.95v.12c0,.39,.08,.72,.24,.99,.16,.27,.4,.51,.71,.7s.7,.35,1.17,.48,1.01,.24,1.64,.33c1.47,.23,2.55,.66,3.24,1.29,.69,.63,1.04,1.48,1.04,2.55v.24c0,.6-.1,1.15-.31,1.65-.21,.5-.51,.93-.92,1.29-.41,.36-.91,.64-1.51,.84-.6,.2-1.29,.3-2.08,.3-.89,0-1.68-.13-2.37-.39-.69-.26-1.26-.62-1.72-1.08s-.81-1-1.05-1.62-.36-1.3-.36-2.03v-.6h1.68v.48c0,1.23,.34,2.15,1.01,2.76s1.61,.92,2.81,.92c1.04,0,1.82-.23,2.35-.69,.53-.46,.79-1.07,.79-1.83v-.12c0-.73-.27-1.29-.81-1.68-.54-.39-1.42-.67-2.63-.84-.71-.09-1.34-.24-1.91-.43-.57-.19-1.05-.45-1.45-.76-.4-.31-.71-.69-.92-1.13-.21-.44-.32-.96-.32-1.56v-.24c0-.55,.11-1.05,.34-1.5,.23-.45,.54-.85,.95-1.18,.41-.33,.89-.59,1.46-.77,.57-.18,1.19-.27,1.87-.27,.79,0,1.49,.11,2.11,.34,.62,.23,1.14,.53,1.57,.91s.75,.83,.97,1.34c.22,.51,.33,1.05,.33,1.61v.84h-1.68v-.72Z"/></g><g><path class="cls-7" d="M489.68,661.99v5.76h-1.68v-14h5c.72,0,1.35,.1,1.88,.31s.98,.48,1.33,.83c.35,.35,.62,.75,.8,1.21,.18,.46,.27,.94,.27,1.45v.6c0,.51-.09,.99-.27,1.46-.18,.47-.45,.88-.81,1.23-.36,.35-.81,.63-1.34,.84-.53,.21-1.15,.31-1.86,.31h-3.32Zm0-1.56h3.12c1.87,0,2.8-.8,2.8-2.4v-.36c0-.71-.23-1.28-.69-1.71-.46-.43-1.16-.65-2.11-.65h-3.12v5.12Z"/><path class="cls-7" d="M508.67,664.27h-6l-1.02,3.48h-1.8l4.24-14h3.16l4.24,14h-1.8l-1.02-3.48Zm-3.12-9.8l-2.42,8.24h5.08l-2.42-8.24h-.24Z"/><path class="cls-7" d="M523.29,667.75h-1.68v-4.68c0-.35-.08-.61-.24-.8-.16-.19-.44-.28-.84-.28h-4.36v5.76h-1.68v-14h5c.72,0,1.35,.1,1.88,.31s.98,.48,1.33,.83c.35,.35,.62,.75,.8,1.21,.18,.46,.27,.94,.27,1.45v.6c0,.52-.14,1.04-.43,1.56s-.73,.92-1.33,1.2v.24c.4,.07,.71,.23,.94,.48s.34,.61,.34,1.08v5.04Zm-7.12-7.32h3.12c.95,0,1.65-.2,2.11-.61s.69-1,.69-1.79v-.36c0-.71-.23-1.28-.69-1.71-.46-.43-1.16-.65-2.11-.65h-3.12v5.12Z"/><path class="cls-7" d="M527.22,653.75h9.84v1.56h-4.08v12.44h-1.68v-12.44h-4.08v-1.56Z"/><path class="cls-7" d="M548.13,667.03h.24v-13.28h1.68v14h-3.36l-4.04-13.28h-.24v13.28h-1.68v-14h3.36l4.04,13.28Z"/><path class="cls-7" d="M554.38,653.75h8.48v1.56h-6.8v4.64h6.68v1.56h-6.68v4.68h6.92v1.56h-8.6v-14Z"/><path class="cls-7" d="M576.24,667.75h-1.68v-4.68c0-.35-.08-.61-.24-.8-.16-.19-.44-.28-.84-.28h-4.36v5.76h-1.68v-14h5c.72,0,1.35,.1,1.88,.31s.98,.48,1.33,.83c.35,.35,.62,.75,.8,1.21,.18,.46,.27,.94,.27,1.45v.6c0,.52-.14,1.04-.43,1.56s-.73,.92-1.33,1.2v.24c.4,.07,.71,.23,.94,.48s.34,.61,.34,1.08v5.04Zm-7.12-7.32h3.12c.95,0,1.65-.2,2.11-.61s.69-1,.69-1.79v-.36c0-.71-.23-1.28-.69-1.71-.46-.43-1.16-.65-2.11-.65h-3.12v5.12Z"/><path class="cls-7" d="M593.42,659.19c0-1.81,.43-3.22,1.3-4.22,.87-1,2.07-1.5,3.62-1.5s2.75,.5,3.62,1.5c.87,1,1.3,2.41,1.3,4.22v3.12c0,1.87-.43,3.29-1.3,4.26-.87,.97-2.07,1.46-3.62,1.46s-2.75-.49-3.62-1.46c-.87-.97-1.3-2.39-1.3-4.26v-3.12Zm4.92,7.28c1.08,0,1.89-.37,2.43-1.11,.54-.74,.81-1.8,.81-3.17v-2.88c0-1.28-.27-2.31-.81-3.1-.54-.79-1.35-1.18-2.43-1.18s-1.89,.39-2.43,1.18c-.54,.79-.81,1.82-.81,3.1v2.88c0,1.37,.27,2.43,.81,3.17,.54,.74,1.35,1.11,2.43,1.11Z"/><path class="cls-7" d="M615.96,667.75h-1.68v-4.68c0-.35-.08-.61-.24-.8-.16-.19-.44-.28-.84-.28h-4.36v5.76h-1.68v-14h5c.72,0,1.35,.1,1.88,.31s.98,.48,1.33,.83c.35,.35,.62,.75,.8,1.21,.18,.46,.27,.94,.27,1.45v.6c0,.52-.14,1.04-.43,1.56s-.73,.92-1.33,1.2v.24c.4,.07,.71,.23,.94,.48s.34,.61,.34,1.08v5.04Zm-7.12-7.32h3.12c.95,0,1.65-.2,2.11-.61s.69-1,.69-1.79v-.36c0-.71-.23-1.28-.69-1.71-.46-.43-1.16-.65-2.11-.65h-3.12v5.12Z"/><path class="cls-7" d="M623.49,661.03h6.24v6.72h-1.56v-1.68h-.24c-.23,.59-.63,1.06-1.2,1.42-.57,.36-1.24,.54-2,.54-1.51,0-2.69-.49-3.55-1.46-.86-.97-1.29-2.39-1.29-4.26v-3.12c0-1.81,.43-3.22,1.3-4.22,.87-1,2.07-1.5,3.62-1.5,.8,0,1.51,.13,2.12,.39,.61,.26,1.13,.62,1.54,1.08,.41,.46,.73,1,.94,1.62,.21,.62,.32,1.28,.32,1.99v.24h-1.68v-.24c0-.45-.06-.89-.19-1.32-.13-.43-.32-.8-.58-1.13-.26-.33-.59-.59-1-.78-.41-.19-.9-.29-1.47-.29-1.08,0-1.89,.39-2.43,1.18-.54,.79-.81,1.82-.81,3.1v2.88c0,1.37,.27,2.43,.81,3.17,.54,.74,1.36,1.11,2.47,1.11,1,0,1.78-.32,2.35-.96,.57-.64,.85-1.53,.85-2.68v-.24h-4.56v-1.56Z"/><path class="cls-7" d="M641.36,657.79c0-.45-.09-.85-.27-1.2-.18-.35-.42-.63-.73-.86s-.66-.4-1.06-.52c-.4-.12-.82-.18-1.26-.18-.39,0-.75,.05-1.1,.15s-.66,.24-.93,.43c-.27,.19-.49,.42-.65,.69-.16,.27-.24,.59-.24,.95v.12c0,.39,.08,.72,.24,.99,.16,.27,.4,.51,.71,.7s.7,.35,1.17,.48c.47,.13,1.01,.24,1.64,.33,1.47,.23,2.55,.66,3.24,1.29s1.04,1.48,1.04,2.55v.24c0,.6-.1,1.15-.31,1.65-.21,.5-.51,.93-.92,1.29-.41,.36-.91,.64-1.51,.84-.6,.2-1.29,.3-2.08,.3-.89,0-1.68-.13-2.37-.39-.69-.26-1.26-.62-1.72-1.08-.46-.46-.81-1-1.05-1.62-.24-.62-.36-1.3-.36-2.03v-.6h1.68v.48c0,1.23,.34,2.15,1.01,2.76,.67,.61,1.61,.92,2.81,.92,1.04,0,1.82-.23,2.35-.69,.53-.46,.79-1.07,.79-1.83v-.12c0-.73-.27-1.29-.81-1.68-.54-.39-1.42-.67-2.63-.84-.71-.09-1.34-.24-1.91-.43-.57-.19-1.05-.45-1.45-.76-.4-.31-.71-.69-.92-1.13-.21-.44-.32-.96-.32-1.56v-.24c0-.55,.11-1.05,.34-1.5,.23-.45,.54-.85,.95-1.18,.41-.33,.89-.59,1.46-.77s1.19-.27,1.87-.27c.79,0,1.49,.11,2.11,.34,.62,.23,1.14,.53,1.57,.91,.43,.38,.75,.83,.97,1.34,.22,.51,.33,1.05,.33,1.61v.84h-1.68v-.72Z"/></g><g><path class="cls-7" d="M535.64,105.92v9.28c0,1.13,.26,1.99,.79,2.57,.53,.58,1.3,.87,2.33,.87s1.8-.29,2.33-.87c.53-.58,.79-1.44,.79-2.57v-9.28h1.68v9.28c0,1.63-.43,2.87-1.28,3.72-.85,.85-2.03,1.28-3.52,1.28s-2.67-.43-3.52-1.28c-.85-.85-1.28-2.09-1.28-3.72v-9.28h1.68Z"/><path class="cls-7" d="M555.3,109.96c0-.45-.09-.85-.27-1.2-.18-.35-.42-.63-.73-.86-.31-.23-.66-.4-1.06-.52-.4-.12-.82-.18-1.26-.18-.39,0-.75,.05-1.1,.15-.35,.1-.66,.24-.93,.43-.27,.19-.49,.42-.65,.69-.16,.27-.24,.59-.24,.95v.12c0,.39,.08,.72,.24,.99,.16,.27,.4,.51,.71,.7s.7,.35,1.17,.48c.47,.13,1.01,.24,1.64,.33,1.47,.23,2.55,.66,3.24,1.29s1.04,1.48,1.04,2.55v.24c0,.6-.1,1.15-.31,1.65-.21,.5-.51,.93-.92,1.29-.41,.36-.91,.64-1.51,.84-.6,.2-1.29,.3-2.08,.3-.89,0-1.68-.13-2.37-.39-.69-.26-1.26-.62-1.72-1.08s-.81-1-1.05-1.62-.36-1.3-.36-2.03v-.6h1.68v.48c0,1.23,.34,2.15,1.01,2.76,.67,.61,1.61,.92,2.81,.92,1.04,0,1.82-.23,2.35-.69,.53-.46,.79-1.07,.79-1.83v-.12c0-.73-.27-1.29-.81-1.68-.54-.39-1.42-.67-2.63-.84-.71-.09-1.34-.24-1.91-.43-.57-.19-1.05-.45-1.45-.76-.4-.31-.71-.69-.92-1.13-.21-.44-.32-.96-.32-1.56v-.24c0-.55,.11-1.05,.34-1.5,.23-.45,.54-.85,.95-1.18,.41-.33,.89-.59,1.46-.77,.57-.18,1.19-.27,1.87-.27,.79,0,1.49,.11,2.11,.34,.62,.23,1.14,.53,1.57,.91,.43,.38,.75,.83,.97,1.34,.22,.51,.33,1.05,.33,1.61v.84h-1.68v-.72Z"/><path class="cls-7" d="M561.01,105.92h8.48v1.56h-6.8v4.64h6.68v1.56h-6.68v4.68h6.92v1.56h-8.6v-14Z"/><path class="cls-7" d="M582.86,119.92h-1.68v-4.68c0-.35-.08-.61-.24-.8-.16-.19-.44-.28-.84-.28h-4.36v5.76h-1.68v-14h5c.72,0,1.35,.1,1.88,.31,.53,.21,.98,.48,1.33,.83,.35,.35,.62,.75,.8,1.21s.27,.94,.27,1.45v.6c0,.52-.14,1.04-.43,1.56s-.73,.92-1.33,1.2v.24c.4,.07,.71,.23,.94,.48,.23,.25,.34,.61,.34,1.08v5.04Zm-7.12-7.32h3.12c.95,0,1.65-.2,2.11-.61,.46-.41,.69-1,.69-1.79v-.36c0-.71-.23-1.28-.69-1.71-.46-.43-1.16-.65-2.11-.65h-3.12v5.12Z"/><path class="cls-7" d="M595.02,109.96c0-.45-.09-.85-.27-1.2-.18-.35-.42-.63-.73-.86-.31-.23-.66-.4-1.06-.52-.4-.12-.82-.18-1.26-.18-.39,0-.75,.05-1.1,.15-.35,.1-.66,.24-.93,.43-.27,.19-.49,.42-.65,.69-.16,.27-.24,.59-.24,.95v.12c0,.39,.08,.72,.24,.99,.16,.27,.4,.51,.71,.7s.7,.35,1.17,.48c.47,.13,1.01,.24,1.64,.33,1.47,.23,2.55,.66,3.24,1.29s1.04,1.48,1.04,2.55v.24c0,.6-.1,1.15-.31,1.65-.21,.5-.51,.93-.92,1.29-.41,.36-.91,.64-1.51,.84-.6,.2-1.29,.3-2.08,.3-.89,0-1.68-.13-2.37-.39-.69-.26-1.26-.62-1.72-1.08s-.81-1-1.05-1.62-.36-1.3-.36-2.03v-.6h1.68v.48c0,1.23,.34,2.15,1.01,2.76,.67,.61,1.61,.92,2.81,.92,1.04,0,1.82-.23,2.35-.69,.53-.46,.79-1.07,.79-1.83v-.12c0-.73-.27-1.29-.81-1.68-.54-.39-1.42-.67-2.63-.84-.71-.09-1.34-.24-1.91-.43-.57-.19-1.05-.45-1.45-.76-.4-.31-.71-.69-.92-1.13-.21-.44-.32-.96-.32-1.56v-.24c0-.55,.11-1.05,.34-1.5,.23-.45,.54-.85,.95-1.18,.41-.33,.89-.59,1.46-.77,.57-.18,1.19-.27,1.87-.27,.79,0,1.49,.11,2.11,.34,.62,.23,1.14,.53,1.57,.91,.43,.38,.75,.83,.97,1.34,.22,.51,.33,1.05,.33,1.61v.84h-1.68v-.72Z"/></g><g><path class="cls-7" d="M329.63,99.49h2.52v.92h.17c.18-.38,.43-.67,.76-.85,.33-.18,.7-.27,1.12-.27,.7,0,1.26,.23,1.69,.69,.43,.46,.66,1.12,.69,2l-1.15,.17c0-.64-.15-1.11-.46-1.39-.31-.28-.69-.43-1.13-.43-.29,0-.54,.06-.75,.17s-.39,.27-.53,.46c-.14,.2-.24,.42-.31,.69-.07,.26-.1,.54-.1,.84v2.94h1.76v1.01h-4.45v-1.01h1.6v-4.93h-1.43v-1.01Z"/><path class="cls-7" d="M339.38,103.3c.03,.69,.24,1.25,.64,1.67,.4,.42,.96,.63,1.68,.63,.33,0,.61-.04,.85-.11,.24-.07,.45-.18,.62-.31,.17-.13,.31-.28,.42-.46,.11-.17,.19-.36,.26-.55l1.04,.28c-.2,.64-.56,1.17-1.08,1.57-.53,.41-1.24,.61-2.14,.61-.49,0-.95-.09-1.36-.26-.42-.17-.77-.42-1.07-.73s-.53-.7-.7-1.13c-.17-.44-.25-.92-.25-1.46v-.34c0-.48,.09-.94,.26-1.36s.41-.78,.72-1.08c.31-.3,.67-.54,1.08-.71,.42-.17,.87-.26,1.35-.26,.57,0,1.06,.1,1.48,.31,.42,.21,.76,.47,1.02,.78,.27,.31,.46,.64,.59,1.01,.13,.36,.19,.7,.19,1.01v.9h-5.6Zm2.32-2.97c-.31,0-.59,.05-.86,.15-.27,.1-.5,.24-.7,.41-.2,.18-.36,.38-.49,.62-.13,.24-.21,.5-.25,.78h4.48c-.02-.3-.09-.57-.22-.81s-.29-.45-.49-.62c-.2-.17-.43-.3-.69-.39s-.52-.14-.79-.14Z"/><path class="cls-7" d="M352.19,105.26h-.17c-.22,.47-.53,.81-.93,1.04-.4,.22-.81,.34-1.25,.34s-.88-.08-1.27-.23c-.39-.15-.73-.38-1.03-.69-.29-.3-.52-.67-.69-1.11-.17-.44-.25-.95-.25-1.53v-.22c0-.57,.08-1.07,.25-1.51,.17-.44,.4-.81,.69-1.11,.29-.3,.64-.53,1.03-.69,.39-.16,.81-.24,1.25-.24,.48,0,.91,.1,1.29,.31s.69,.53,.92,.97h.17v-1.09h1.09v5.52c0,.28,.13,.42,.38,.42h.35v1.01h-.74c-.32,0-.58-.1-.78-.31-.2-.21-.3-.47-.3-.78v-.08Zm-2.24,.34c.33,0,.63-.06,.9-.18,.28-.12,.51-.29,.71-.52s.35-.49,.46-.81c.11-.31,.17-.66,.17-1.04v-.17c0-.37-.06-.72-.17-1.03-.11-.31-.27-.58-.47-.81-.2-.22-.44-.4-.71-.52s-.57-.19-.89-.19-.62,.06-.9,.18-.51,.29-.71,.51c-.2,.22-.36,.49-.47,.8-.11,.31-.17,.66-.17,1.03v.22c0,.79,.21,1.41,.62,1.85,.42,.44,.95,.67,1.62,.67Z"/><path class="cls-7" d="M357.16,101.28c0,.34,.14,.59,.43,.77s.8,.29,1.56,.35c.81,.07,1.43,.26,1.85,.58,.42,.32,.64,.79,.64,1.41v.08c0,.34-.07,.64-.2,.9-.13,.27-.32,.49-.56,.68s-.53,.33-.87,.43c-.34,.1-.71,.15-1.11,.15-.54,0-1.01-.07-1.39-.22s-.71-.34-.97-.57c-.26-.24-.45-.51-.58-.81-.13-.3-.21-.61-.22-.92l1.04-.25c.05,.53,.25,.96,.62,1.28,.36,.32,.85,.48,1.46,.48,.51,0,.93-.1,1.24-.3s.47-.48,.47-.85c0-.39-.15-.67-.46-.84s-.81-.28-1.5-.32c-.8-.06-1.42-.24-1.85-.56-.43-.32-.64-.78-.64-1.39v-.08c0-.33,.07-.61,.21-.86,.14-.25,.33-.45,.57-.62,.24-.17,.51-.29,.8-.38s.61-.13,.94-.13c.46,0,.86,.06,1.2,.19,.34,.13,.63,.29,.87,.49,.23,.2,.41,.43,.54,.69s.21,.52,.25,.78l-1.04,.25c-.05-.45-.23-.8-.54-1.05-.31-.25-.72-.38-1.23-.38-.2,0-.38,.02-.57,.06-.18,.04-.34,.1-.48,.19s-.25,.19-.34,.32c-.08,.13-.13,.27-.13,.44Z"/><path class="cls-7" d="M370.84,103.05c0,.58-.1,1.09-.29,1.53-.19,.44-.45,.82-.76,1.12s-.69,.53-1.11,.69c-.42,.16-.87,.24-1.32,.24s-.91-.08-1.33-.24-.79-.39-1.11-.69-.57-.68-.76-1.12-.29-.95-.29-1.53v-.17c0-.57,.1-1.08,.29-1.52,.19-.44,.45-.82,.77-1.13,.32-.31,.69-.54,1.11-.7s.86-.24,1.32-.24,.9,.08,1.32,.24,.79,.39,1.11,.7c.32,.31,.58,.68,.77,1.13,.19,.44,.29,.95,.29,1.52v.17Zm-3.49,2.55c.34,0,.65-.06,.93-.18,.29-.12,.53-.29,.75-.51s.38-.49,.5-.81c.12-.31,.18-.67,.18-1.06v-.17c0-.37-.06-.72-.18-1.03-.12-.31-.29-.58-.5-.81-.21-.22-.47-.4-.76-.52s-.6-.19-.92-.19-.63,.06-.92,.19c-.29,.13-.54,.3-.76,.52-.21,.22-.38,.49-.5,.81-.12,.31-.18,.66-.18,1.03v.17c0,.39,.06,.74,.18,1.06,.12,.31,.29,.58,.5,.81,.21,.22,.46,.39,.75,.51,.29,.12,.6,.18,.93,.18Z"/><path class="cls-7" d="M373.95,106.43h-1.09v-6.94h1.09v1.18h.17c.43-.91,1.18-1.37,2.24-1.37,.8,0,1.44,.25,1.92,.75,.48,.5,.71,1.25,.71,2.25v4.14h-1.09v-3.92c0-.73-.16-1.27-.49-1.64-.33-.36-.77-.55-1.33-.55-.66,0-1.18,.23-1.56,.68s-.57,1.06-.57,1.81v3.61Z"/><path class="cls-7" d="M318.26,123.23h-1.09v-6.94h1.09v1.18h.17c.43-.91,1.18-1.37,2.24-1.37,.8,0,1.44,.25,1.92,.75,.48,.5,.71,1.25,.71,2.25v4.14h-1.09v-3.92c0-.73-.16-1.27-.49-1.64-.33-.36-.77-.55-1.33-.55-.66,0-1.18,.23-1.56,.68s-.57,1.06-.57,1.81v3.61Z"/><path class="cls-7" d="M325.36,117.24c0-1.27,.3-2.25,.91-2.95,.61-.7,1.45-1.05,2.53-1.05s1.93,.35,2.53,1.05c.61,.7,.91,1.68,.91,2.95v2.18c0,1.31-.3,2.3-.91,2.98-.61,.68-1.45,1.02-2.53,1.02s-1.93-.34-2.53-1.02c-.61-.68-.91-1.67-.91-2.98v-2.18Zm3.44,5.12c.76,0,1.32-.26,1.7-.79,.38-.53,.57-1.27,.57-2.23v-2.02c0-.45-.05-.86-.14-1.22-.09-.37-.24-.69-.43-.95-.19-.27-.43-.47-.71-.62-.29-.15-.61-.22-.99-.22s-.71,.07-.99,.22-.52,.36-.71,.62-.33,.58-.43,.95c-.09,.37-.14,.78-.14,1.22v2.02c0,.96,.19,1.71,.57,2.23,.38,.53,.95,.79,1.7,.79Zm-.9-4.03c0-.24,.09-.45,.27-.63,.18-.18,.39-.27,.63-.27s.45,.09,.63,.27c.18,.18,.27,.39,.27,.63s-.09,.45-.27,.63c-.18,.18-.39,.27-.63,.27s-.45-.09-.63-.27c-.18-.18-.27-.39-.27-.63Z"/><path class="cls-7" d="M343.67,120.1c.03,.69,.24,1.25,.64,1.67,.4,.42,.96,.63,1.68,.63,.33,0,.61-.04,.85-.11,.24-.07,.45-.18,.62-.31,.17-.13,.31-.28,.42-.46,.11-.17,.19-.36,.26-.55l1.04,.28c-.2,.64-.56,1.17-1.08,1.57-.53,.41-1.24,.61-2.14,.61-.49,0-.95-.09-1.36-.26-.42-.17-.77-.42-1.07-.73s-.53-.7-.7-1.13c-.17-.44-.25-.92-.25-1.46v-.34c0-.48,.09-.94,.26-1.36s.41-.78,.72-1.08c.31-.3,.67-.54,1.08-.71,.42-.17,.87-.26,1.35-.26,.57,0,1.06,.1,1.48,.31,.42,.21,.76,.47,1.02,.78,.27,.31,.46,.64,.59,1.01,.13,.36,.19,.7,.19,1.01v.9h-5.6Zm2.32-2.97c-.31,0-.59,.05-.86,.15-.27,.1-.5,.24-.7,.41-.2,.18-.36,.38-.49,.62-.13,.24-.21,.5-.25,.78h4.48c-.02-.3-.09-.57-.22-.81s-.29-.45-.49-.62c-.2-.17-.43-.3-.69-.39s-.52-.14-.79-.14Z"/><path class="cls-7" d="M356.38,116.29h1.25l-2.04,3.3v.17l2.21,3.47h-1.27l-1.89-3.05h-.25l-1.89,3.05h-1.27l2.21-3.47v-.17l-2.04-3.3h1.25l1.75,2.88h.25l1.75-2.88Z"/><path class="cls-7" d="M360.17,122.23h2.44v-4.93h-2.18v-1.01h3.28v5.94h2.27v1.01h-5.8v-1.01Zm1.99-8.01c0-.27,.1-.5,.29-.69s.42-.29,.69-.29,.5,.1,.69,.29,.29,.42,.29,.69-.1,.5-.29,.69c-.19,.19-.42,.29-.69,.29s-.5-.1-.69-.29c-.19-.19-.29-.42-.29-.69Z"/><path class="cls-7" d="M370.02,118.08c0,.34,.14,.59,.43,.77s.8,.29,1.56,.35c.81,.07,1.43,.26,1.85,.58,.42,.32,.64,.79,.64,1.41v.08c0,.34-.07,.64-.2,.9-.13,.27-.32,.49-.56,.68s-.53,.33-.87,.43c-.34,.1-.71,.15-1.11,.15-.54,0-1.01-.07-1.39-.22s-.71-.34-.97-.57c-.26-.24-.45-.51-.58-.81-.13-.3-.21-.61-.22-.92l1.04-.25c.05,.53,.25,.96,.62,1.28,.36,.32,.85,.48,1.46,.48,.51,0,.93-.1,1.24-.3s.47-.48,.47-.85c0-.39-.15-.67-.46-.84s-.81-.28-1.5-.32c-.8-.06-1.42-.24-1.85-.56-.43-.32-.64-.78-.64-1.39v-.08c0-.33,.07-.61,.21-.86,.14-.25,.33-.45,.57-.62,.24-.17,.51-.29,.8-.38s.61-.13,.94-.13c.46,0,.86,.06,1.2,.19,.34,.13,.63,.29,.87,.49,.23,.2,.41,.43,.54,.69s.21,.52,.25,.78l-1.04,.25c-.05-.45-.23-.8-.54-1.05-.31-.25-.72-.38-1.23-.38-.2,0-.38,.02-.57,.06-.18,.04-.34,.1-.48,.19s-.25,.19-.34,.32c-.08,.13-.13,.27-.13,.44Z"/><path class="cls-7" d="M376.9,116.29h2.18v-2.86h1.09v2.86h2.69v1.01h-2.69v4.51c0,.28,.13,.42,.38,.42h1.97v1.01h-2.37c-.32,0-.58-.1-.78-.31-.2-.21-.3-.47-.3-.78v-4.84h-2.18v-1.01Z"/><path class="cls-7" d="M387.15,118.08c0,.34,.14,.59,.43,.77s.8,.29,1.56,.35c.81,.07,1.43,.26,1.85,.58,.42,.32,.64,.79,.64,1.41v.08c0,.34-.07,.64-.2,.9-.13,.27-.32,.49-.56,.68s-.53,.33-.87,.43c-.34,.1-.71,.15-1.11,.15-.54,0-1.01-.07-1.39-.22s-.71-.34-.97-.57c-.26-.24-.45-.51-.58-.81-.13-.3-.21-.61-.22-.92l1.04-.25c.05,.53,.25,.96,.62,1.28,.36,.32,.85,.48,1.46,.48,.51,0,.93-.1,1.24-.3s.47-.48,.47-.85c0-.39-.15-.67-.46-.84s-.81-.28-1.5-.32c-.8-.06-1.42-.24-1.85-.56-.43-.32-.64-.78-.64-1.39v-.08c0-.33,.07-.61,.21-.86,.14-.25,.33-.45,.57-.62,.24-.17,.51-.29,.8-.38s.61-.13,.94-.13c.46,0,.86,.06,1.2,.19,.34,.13,.63,.29,.87,.49,.23,.2,.41,.43,.54,.69s.21,.52,.25,.78l-1.04,.25c-.05-.45-.23-.8-.54-1.05-.31-.25-.72-.38-1.23-.38-.2,0-.38,.02-.57,.06-.18,.04-.34,.1-.48,.19s-.25,.19-.34,.32c-.08,.13-.13,.27-.13,.44Z"/></g><g><path class="cls-7" d="M553.63,87.23c0-1.27,.3-2.25,.91-2.95,.61-.7,1.45-1.05,2.53-1.05s1.93,.35,2.53,1.05c.61,.7,.91,1.68,.91,2.95v2.18c0,1.31-.3,2.3-.91,2.98-.61,.68-1.45,1.02-2.53,1.02s-1.93-.34-2.53-1.02c-.61-.68-.91-1.67-.91-2.98v-2.18Zm3.44,5.12c.76,0,1.32-.26,1.7-.79,.38-.53,.57-1.27,.57-2.23v-2.02c0-.45-.05-.86-.14-1.22-.09-.37-.24-.69-.43-.95-.19-.27-.43-.47-.71-.62-.29-.15-.61-.22-.99-.22s-.71,.07-.99,.22-.52,.36-.71,.62-.33,.58-.43,.95c-.09,.37-.14,.78-.14,1.22v2.02c0,.96,.19,1.71,.57,2.23,.38,.53,.95,.79,1.7,.79Zm-.9-4.03c0-.24,.09-.45,.27-.63,.18-.18,.39-.27,.63-.27s.45,.09,.63,.27c.18,.18,.27,.39,.27,.63s-.09,.45-.27,.63c-.18,.18-.39,.27-.63,.27s-.45-.09-.63-.27c-.18-.18-.27-.39-.27-.63Z"/><path class="cls-7" d="M565.13,92.13v-8.19h-.17l-1.61,3.68h-1.16v-.08l1.83-4.12h2.28v8.71h2.77v1.09h-6.72v-1.09h2.77Z"/><path class="cls-7" d="M573.23,92.44c0-.27,.1-.5,.29-.69,.19-.19,.42-.29,.69-.29s.5,.1,.69,.29c.19,.19,.29,.42,.29,.69s-.1,.5-.29,.69c-.19,.19-.42,.29-.69,.29s-.5-.1-.69-.29c-.19-.19-.29-.42-.29-.69Z"/></g><g><path class="cls-7" d="M553.63,303.89c0-1.27,.3-2.25,.91-2.95,.61-.7,1.45-1.05,2.53-1.05s1.93,.35,2.53,1.05c.61,.7,.91,1.68,.91,2.95v2.18c0,1.31-.3,2.3-.91,2.98-.61,.68-1.45,1.02-2.53,1.02s-1.93-.34-2.53-1.02c-.61-.68-.91-1.67-.91-2.98v-2.18Zm3.44,5.12c.76,0,1.32-.26,1.7-.79,.38-.53,.57-1.27,.57-2.23v-2.02c0-.45-.05-.86-.14-1.22-.09-.37-.24-.69-.43-.95-.19-.27-.43-.47-.71-.62-.29-.15-.61-.22-.99-.22s-.71,.07-.99,.22-.52,.36-.71,.62c-.19,.27-.33,.58-.43,.95-.09,.37-.14,.78-.14,1.22v2.02c0,.96,.19,1.71,.57,2.23,.38,.53,.95,.79,1.7,.79Zm-.9-4.03c0-.24,.09-.45,.27-.63,.18-.18,.39-.27,.63-.27s.45,.09,.63,.27,.27,.39,.27,.63-.09,.45-.27,.63c-.18,.18-.39,.27-.63,.27s-.45-.09-.63-.27-.27-.39-.27-.63Z"/><path class="cls-7" d="M568.98,308.79v1.09h-6.64v-1.68c0-.45,.07-.84,.22-1.17s.36-.62,.64-.85c.28-.24,.61-.44,1-.59,.39-.16,.83-.29,1.33-.41,.83-.19,1.43-.45,1.8-.8,.37-.34,.55-.77,.55-1.27v-.08c0-.25-.04-.5-.13-.74-.08-.24-.21-.46-.39-.66s-.4-.35-.68-.47c-.28-.12-.6-.17-.99-.17-.72,0-1.28,.22-1.67,.66-.4,.44-.59,1.02-.59,1.75v.62h-1.18v-.7c0-.45,.07-.88,.22-1.29,.15-.41,.37-.77,.66-1.09,.29-.32,.65-.57,1.08-.76,.43-.19,.92-.28,1.48-.28s1.06,.09,1.48,.26,.77,.4,1.05,.69c.28,.29,.49,.61,.62,.97,.13,.36,.2,.73,.2,1.1v.25c0,.75-.23,1.38-.7,1.91-.47,.53-1.21,.9-2.24,1.13-.9,.2-1.55,.45-1.97,.78s-.63,.79-.63,1.41v.42h5.46Z"/><path class="cls-7" d="M573.23,309.1c0-.27,.1-.5,.29-.69s.42-.29,.69-.29,.5,.1,.69,.29,.29,.42,.29,.69-.1,.5-.29,.69-.42,.29-.69,.29-.5-.1-.69-.29-.29-.42-.29-.69Z"/></g><g><path class="cls-7" d="M553.63,471.81c0-1.27,.3-2.25,.91-2.95,.61-.7,1.45-1.05,2.53-1.05s1.93,.35,2.53,1.05c.61,.7,.91,1.68,.91,2.95v2.18c0,1.31-.3,2.3-.91,2.98-.61,.68-1.45,1.02-2.53,1.02s-1.93-.34-2.53-1.02c-.61-.68-.91-1.67-.91-2.98v-2.18Zm3.44,5.12c.76,0,1.32-.26,1.7-.79,.38-.53,.57-1.27,.57-2.23v-2.02c0-.45-.05-.86-.14-1.22-.09-.37-.24-.69-.43-.95-.19-.27-.43-.47-.71-.62-.29-.15-.61-.22-.99-.22s-.71,.07-.99,.22-.52,.36-.71,.62c-.19,.27-.33,.58-.43,.95-.09,.37-.14,.78-.14,1.22v2.02c0,.96,.19,1.71,.57,2.23,.38,.53,.95,.79,1.7,.79Zm-.9-4.03c0-.24,.09-.45,.27-.63,.18-.18,.39-.27,.63-.27s.45,.09,.63,.27,.27,.39,.27,.63-.09,.45-.27,.63c-.18,.18-.39,.27-.63,.27s-.45-.09-.63-.27-.27-.39-.27-.63Z"/><path class="cls-7" d="M564.68,472.93v-1.62l3.19-2.04v-.17h-5.54v-1.09h6.55v1.79l-3.19,2.04v.17h.56c.37,0,.73,.06,1.08,.18,.35,.12,.65,.3,.92,.53,.27,.23,.48,.52,.64,.86,.16,.34,.24,.74,.24,1.18v.25c0,.42-.08,.81-.25,1.18-.17,.36-.4,.68-.7,.94-.3,.27-.65,.48-1.06,.63-.41,.15-.85,.23-1.32,.23-.55,0-1.05-.08-1.48-.25s-.81-.4-1.12-.69-.54-.64-.71-1.04c-.16-.4-.25-.82-.25-1.27v-.76h1.18v.67c0,.35,.06,.67,.18,.95,.12,.28,.28,.51,.49,.7,.21,.19,.46,.34,.75,.44s.6,.15,.94,.15c.31,0,.59-.05,.86-.15,.27-.1,.5-.25,.69-.43,.2-.18,.35-.4,.46-.64,.11-.25,.17-.51,.17-.79v-.08c0-.59-.19-1.05-.56-1.38-.37-.33-.84-.5-1.4-.5h-1.32Z"/><path class="cls-7" d="M573.23,477.01c0-.27,.1-.5,.29-.69s.42-.29,.69-.29,.5,.1,.69,.29,.29,.42,.29,.69-.1,.5-.29,.69-.42,.29-.69,.29-.5-.1-.69-.29-.29-.42-.29-.69Z"/></g><g><path class="cls-7" d="M553.63,635.29c0-1.27,.3-2.25,.91-2.95,.61-.7,1.45-1.05,2.53-1.05s1.93,.35,2.53,1.05c.61,.7,.91,1.68,.91,2.95v2.18c0,1.31-.3,2.3-.91,2.98-.61,.68-1.45,1.02-2.53,1.02s-1.93-.34-2.53-1.02c-.61-.68-.91-1.67-.91-2.98v-2.18Zm3.44,5.12c.76,0,1.32-.26,1.7-.79,.38-.53,.57-1.27,.57-2.23v-2.02c0-.45-.05-.86-.14-1.22-.09-.37-.24-.69-.43-.95-.19-.27-.43-.47-.71-.62-.29-.15-.61-.22-.99-.22s-.71,.07-.99,.22-.52,.36-.71,.62c-.19,.27-.33,.58-.43,.95-.09,.37-.14,.78-.14,1.22v2.02c0,.96,.19,1.71,.57,2.23,.38,.53,.95,.79,1.7,.79Zm-.9-4.03c0-.24,.09-.45,.27-.63,.18-.18,.39-.27,.63-.27s.45,.09,.63,.27,.27,.39,.27,.63-.09,.45-.27,.63c-.18,.18-.39,.27-.63,.27s-.45-.09-.63-.27-.27-.39-.27-.63Z"/><path class="cls-7" d="M565.48,631.49h2.28v6.86h1.51v1.09h-1.51v1.85h-1.18v-1.85h-4.54v-1.62l3.43-6.33Zm-2.42,6.69v.17h3.53v-6.36h-.17l-3.36,6.19Z"/><path class="cls-7" d="M573.23,640.5c0-.27,.1-.5,.29-.69s.42-.29,.69-.29,.5,.1,.69,.29,.29,.42,.29,.69-.1,.5-.29,.69-.42,.29-.69,.29-.5-.1-.69-.29-.29-.42-.29-.69Z"/></g><g><path class="cls-7" d="M337.73,492.54h-1.09v-4.98c0-.33-.07-.59-.22-.8s-.39-.32-.71-.32c-.31,0-.56,.11-.75,.34-.19,.23-.29,.58-.29,1.06v4.7h-1.09v-5.04c0-.31-.08-.56-.25-.76-.17-.2-.39-.3-.67-.3-.34,0-.6,.12-.78,.36-.18,.24-.27,.56-.27,.95v4.79h-1.09v-6.94h1.09v.76h.17c.12-.33,.3-.57,.53-.72s.51-.23,.83-.23c.34,0,.61,.09,.83,.27,.22,.18,.37,.41,.46,.69h.17c.32-.63,.82-.95,1.51-.95,.52,0,.93,.17,1.21,.5,.29,.33,.43,.76,.43,1.29v5.35Z"/><path class="cls-7" d="M344.58,485.59h1.09v6.94h-1.09v-1.26h-.17c-.22,.45-.52,.8-.88,1.06-.36,.26-.83,.39-1.39,.39-.38,0-.74-.06-1.06-.19-.32-.13-.6-.32-.83-.57-.23-.25-.41-.56-.53-.94s-.19-.81-.19-1.3v-4.14h1.09v4c0,.73,.15,1.26,.45,1.6,.3,.34,.76,.5,1.37,.5,.66,0,1.18-.23,1.56-.68,.38-.45,.57-1.06,.57-1.81v-3.61Z"/><path class="cls-7" d="M347.95,485.59h2.18v-2.86h1.09v2.86h2.69v1.01h-2.69v4.51c0,.28,.13,.42,.38,.42h1.97v1.01h-2.37c-.32,0-.58-.1-.78-.31-.2-.21-.3-.47-.3-.78v-4.84h-2.18v-1.01Z"/><path class="cls-7" d="M361.71,485.59h1.09v6.94h-1.09v-1.26h-.17c-.22,.45-.52,.8-.88,1.06-.36,.26-.83,.39-1.39,.39-.38,0-.74-.06-1.06-.19-.32-.13-.6-.32-.83-.57-.23-.25-.41-.56-.53-.94s-.19-.81-.19-1.3v-4.14h1.09v4c0,.73,.15,1.26,.45,1.6,.3,.34,.76,.5,1.37,.5,.66,0,1.18-.23,1.56-.68,.38-.45,.57-1.06,.57-1.81v-3.61Z"/><path class="cls-7" d="M370.37,491.36h-.17c-.22,.47-.53,.81-.93,1.04-.4,.22-.81,.34-1.25,.34s-.88-.08-1.27-.23c-.39-.15-.73-.38-1.03-.69-.29-.3-.52-.67-.69-1.11s-.25-.95-.25-1.53v-.22c0-.57,.08-1.07,.25-1.51,.17-.44,.4-.81,.69-1.11,.29-.3,.64-.53,1.03-.69,.39-.16,.81-.24,1.25-.24,.48,0,.91,.11,1.29,.32s.69,.53,.92,.97h.17v-1.09h1.09v5.52c0,.28,.13,.42,.38,.42h.35v1.01h-.74c-.32,0-.58-.1-.78-.31-.2-.21-.3-.47-.3-.78v-.08Zm-2.24,.34c.33,0,.63-.06,.9-.18,.28-.12,.51-.29,.71-.52,.2-.22,.35-.49,.46-.81,.11-.31,.17-.66,.17-1.04v-.17c0-.37-.06-.72-.17-1.03s-.27-.58-.47-.81c-.2-.22-.44-.4-.71-.52s-.57-.19-.89-.19-.62,.06-.9,.18-.51,.29-.71,.51c-.2,.22-.36,.49-.47,.8-.11,.31-.17,.66-.17,1.03v.22c0,.79,.21,1.41,.62,1.86,.42,.44,.95,.67,1.62,.67Z"/><path class="cls-7" d="M373.89,491.53h2.52v-7.78h-2.44v-1.01h3.53v8.79h2.52v1.01h-6.13v-1.01Z"/><path class="cls-7" d="M322.66,508.33h2.44v-4.93h-2.18v-1.01h3.28v5.94h2.27v1.01h-5.8v-1.01Zm1.99-8.01c0-.27,.1-.5,.29-.69s.42-.29,.69-.29,.5,.1,.69,.29,.29,.42,.29,.69-.1,.5-.29,.69-.42,.29-.69,.29-.5-.1-.69-.29-.29-.42-.29-.69Z"/><path class="cls-7" d="M332.15,509.34h-1.09v-6.94h1.09v1.18h.17c.43-.91,1.18-1.37,2.24-1.37,.8,0,1.44,.25,1.92,.75,.48,.5,.71,1.25,.71,2.25v4.14h-1.09v-3.92c0-.73-.16-1.27-.49-1.64-.33-.36-.77-.55-1.33-.55-.66,0-1.18,.23-1.56,.68-.38,.45-.57,1.06-.57,1.81v3.61Z"/><path class="cls-7" d="M339.39,502.39h2.18v-2.86h1.09v2.86h2.69v1.01h-2.69v4.51c0,.28,.13,.42,.38,.42h1.97v1.01h-2.37c-.32,0-.58-.1-.78-.31-.2-.21-.3-.47-.3-.78v-4.84h-2.18v-1.01Z"/><path class="cls-7" d="M348.99,506.2c.03,.69,.24,1.25,.64,1.67,.4,.42,.96,.63,1.68,.63,.33,0,.61-.04,.85-.11,.24-.07,.45-.18,.62-.31,.17-.13,.31-.28,.42-.46,.11-.17,.19-.36,.26-.55l1.04,.28c-.2,.64-.56,1.17-1.08,1.58s-1.24,.61-2.14,.61c-.49,0-.95-.09-1.36-.26-.42-.17-.77-.42-1.07-.73s-.53-.7-.7-1.13c-.17-.44-.25-.92-.25-1.46v-.34c0-.48,.09-.94,.26-1.36s.41-.78,.72-1.08c.31-.3,.67-.54,1.08-.71,.42-.17,.87-.26,1.35-.26,.57,0,1.06,.11,1.48,.32,.42,.21,.76,.47,1.02,.78,.27,.31,.46,.64,.59,1.01s.19,.7,.19,1.01v.9h-5.6Zm2.32-2.97c-.31,0-.59,.05-.86,.15-.27,.1-.5,.24-.7,.41-.2,.18-.36,.38-.49,.62-.13,.24-.21,.5-.25,.78h4.48c-.02-.3-.09-.57-.22-.81-.13-.24-.29-.45-.49-.62-.2-.17-.43-.3-.69-.39-.26-.09-.52-.14-.79-.14Z"/><path class="cls-7" d="M356.37,502.39h2.52v.92h.17c.18-.38,.43-.67,.76-.85,.33-.18,.7-.27,1.12-.27,.7,0,1.26,.23,1.69,.69s.66,1.12,.69,2l-1.15,.17c0-.64-.15-1.11-.46-1.39-.31-.29-.69-.43-1.13-.43-.29,0-.54,.06-.75,.17-.21,.11-.39,.27-.53,.46-.14,.2-.24,.42-.31,.69-.07,.26-.1,.54-.1,.84v2.94h1.76v1.01h-4.45v-1.01h1.6v-4.93h-1.43v-1.01Z"/><path class="cls-7" d="M366.13,506.2c.03,.69,.24,1.25,.64,1.67,.4,.42,.96,.63,1.68,.63,.33,0,.61-.04,.85-.11,.24-.07,.45-.18,.62-.31,.17-.13,.31-.28,.42-.46,.11-.17,.19-.36,.26-.55l1.04,.28c-.2,.64-.56,1.17-1.08,1.58s-1.24,.61-2.14,.61c-.49,0-.95-.09-1.36-.26-.42-.17-.77-.42-1.07-.73s-.53-.7-.7-1.13c-.17-.44-.25-.92-.25-1.46v-.34c0-.48,.09-.94,.26-1.36s.41-.78,.72-1.08c.31-.3,.67-.54,1.08-.71,.42-.17,.87-.26,1.35-.26,.57,0,1.06,.11,1.48,.32,.42,.21,.76,.47,1.02,.78,.27,.31,.46,.64,.59,1.01s.19,.7,.19,1.01v.9h-5.6Zm2.32-2.97c-.31,0-.59,.05-.86,.15-.27,.1-.5,.24-.7,.41-.2,.18-.36,.38-.49,.62-.13,.24-.21,.5-.25,.78h4.48c-.02-.3-.09-.57-.22-.81-.13-.24-.29-.45-.49-.62-.2-.17-.43-.3-.69-.39-.26-.09-.52-.14-.79-.14Z"/><path class="cls-7" d="M375.34,504.19c0,.34,.14,.59,.43,.77,.29,.18,.8,.29,1.56,.35,.81,.07,1.43,.26,1.85,.58s.64,.79,.64,1.41v.08c0,.34-.07,.64-.2,.9-.13,.27-.32,.49-.56,.68s-.53,.33-.87,.43-.71,.15-1.11,.15c-.54,0-1.01-.07-1.39-.22s-.71-.34-.97-.57c-.26-.24-.45-.51-.58-.81-.13-.3-.21-.61-.22-.92l1.04-.25c.05,.53,.25,.96,.62,1.28,.36,.32,.85,.48,1.46,.48,.51,0,.93-.1,1.24-.3,.31-.2,.47-.48,.47-.85,0-.39-.15-.67-.46-.84s-.81-.28-1.5-.32c-.8-.06-1.42-.24-1.85-.56-.43-.32-.64-.78-.64-1.39v-.08c0-.33,.07-.61,.21-.86,.14-.25,.33-.45,.57-.62,.24-.17,.51-.29,.8-.38s.61-.13,.94-.13c.46,0,.86,.06,1.2,.19,.34,.13,.63,.29,.87,.49,.23,.2,.41,.43,.54,.69,.13,.26,.21,.52,.25,.78l-1.04,.25c-.05-.45-.23-.8-.54-1.05-.31-.25-.72-.38-1.23-.38-.2,0-.38,.02-.57,.06-.18,.04-.34,.11-.48,.19s-.25,.19-.34,.32c-.08,.13-.13,.27-.13,.44Z"/><path class="cls-7" d="M382.23,502.39h2.18v-2.86h1.09v2.86h2.69v1.01h-2.69v4.51c0,.28,.13,.42,.38,.42h1.97v1.01h-2.37c-.32,0-.58-.1-.78-.31-.2-.21-.3-.47-.3-.78v-4.84h-2.18v-1.01Z"/></g><g><path class="cls-7" d="M328.21,329.03c0,.34,.14,.59,.43,.77,.29,.18,.8,.29,1.56,.35,.81,.07,1.43,.26,1.85,.58,.43,.32,.64,.79,.64,1.41v.08c0,.34-.07,.64-.2,.9-.13,.27-.32,.49-.56,.68s-.53,.33-.87,.43c-.34,.1-.71,.15-1.11,.15-.54,0-1.01-.07-1.39-.22-.39-.14-.71-.34-.96-.57-.26-.24-.45-.51-.58-.81-.13-.3-.21-.61-.22-.92l1.04-.25c.05,.53,.25,.96,.62,1.28,.37,.32,.85,.48,1.46,.48,.51,0,.93-.1,1.24-.3,.31-.2,.47-.48,.47-.85,0-.39-.15-.67-.46-.84-.31-.17-.81-.28-1.5-.32-.8-.06-1.42-.24-1.85-.56-.43-.32-.64-.78-.64-1.39v-.08c0-.33,.07-.61,.21-.86,.14-.25,.33-.45,.57-.62,.24-.17,.51-.29,.8-.38s.61-.13,.94-.13c.46,0,.86,.06,1.21,.19,.34,.13,.63,.29,.87,.49,.23,.2,.41,.43,.54,.69,.12,.26,.21,.52,.24,.78l-1.04,.25c-.05-.45-.23-.8-.54-1.05s-.72-.38-1.22-.38c-.2,0-.38,.02-.57,.06-.18,.04-.34,.11-.48,.19-.14,.08-.25,.19-.34,.32-.08,.13-.12,.27-.12,.44Z"/><path class="cls-7" d="M340.3,327.24h1.09v6.94h-1.09v-1.26h-.17c-.22,.45-.52,.8-.88,1.06-.36,.26-.83,.39-1.38,.39-.38,0-.74-.06-1.06-.19-.32-.13-.6-.32-.82-.57-.23-.25-.41-.56-.53-.94-.12-.37-.19-.81-.19-1.3v-4.14h1.09v4c0,.73,.15,1.26,.45,1.6,.3,.34,.76,.5,1.37,.5,.66,0,1.18-.23,1.56-.68,.38-.45,.57-1.06,.57-1.81v-3.61Z"/><path class="cls-7" d="M344.75,336.98h-1.09v-9.74h1.09v1.09h.17c.24-.42,.58-.74,1.01-.96,.43-.22,.9-.33,1.4-.33,.43,0,.83,.08,1.22,.24,.38,.16,.72,.39,1.02,.69,.29,.3,.53,.67,.7,1.11,.17,.44,.26,.94,.26,1.5v.28c0,.57-.08,1.07-.25,1.51s-.4,.81-.69,1.11c-.29,.3-.64,.52-1.03,.68-.39,.15-.81,.23-1.24,.23-.22,0-.45-.03-.69-.08-.23-.05-.46-.13-.66-.24-.21-.11-.4-.24-.58-.39-.18-.15-.33-.34-.45-.55h-.17v3.86Zm2.32-3.64c.34,0,.64-.06,.92-.18,.28-.12,.53-.28,.73-.5,.21-.21,.37-.48,.49-.78,.12-.31,.18-.65,.18-1.04v-.28c0-.37-.06-.71-.18-1.01-.12-.3-.28-.56-.49-.78-.21-.22-.46-.39-.74-.51-.28-.12-.59-.18-.92-.18s-.63,.06-.91,.19-.53,.3-.73,.52c-.21,.22-.38,.49-.5,.81s-.18,.66-.18,1.03v.17c0,.38,.06,.73,.18,1.04,.12,.31,.29,.58,.5,.81,.21,.22,.46,.4,.73,.52,.28,.12,.58,.18,.91,.18Z"/><path class="cls-7" d="M353.31,336.98h-1.09v-9.74h1.09v1.09h.17c.24-.42,.58-.74,1.01-.96,.43-.22,.9-.33,1.4-.33,.43,0,.83,.08,1.22,.24,.38,.16,.72,.39,1.02,.69,.29,.3,.53,.67,.7,1.11,.17,.44,.26,.94,.26,1.5v.28c0,.57-.08,1.07-.25,1.51s-.4,.81-.69,1.11c-.29,.3-.64,.52-1.03,.68-.39,.15-.81,.23-1.24,.23-.22,0-.45-.03-.69-.08-.23-.05-.46-.13-.66-.24-.21-.11-.4-.24-.58-.39-.18-.15-.33-.34-.45-.55h-.17v3.86Zm2.32-3.64c.34,0,.64-.06,.92-.18,.28-.12,.53-.28,.73-.5,.21-.21,.37-.48,.49-.78,.12-.31,.18-.65,.18-1.04v-.28c0-.37-.06-.71-.18-1.01-.12-.3-.28-.56-.49-.78-.21-.22-.46-.39-.74-.51-.28-.12-.59-.18-.92-.18s-.63,.06-.91,.19-.53,.3-.73,.52c-.21,.22-.38,.49-.5,.81s-.18,.66-.18,1.03v.17c0,.38,.06,.73,.18,1.04,.12,.31,.29,.58,.5,.81,.21,.22,.46,.4,.73,.52,.28,.12,.58,.18,.91,.18Z"/><path class="cls-7" d="M367.59,330.79c0,.58-.1,1.09-.29,1.53s-.45,.82-.76,1.12c-.32,.3-.69,.53-1.11,.69-.43,.16-.87,.24-1.32,.24s-.91-.08-1.33-.24c-.42-.16-.79-.39-1.11-.69-.32-.3-.57-.68-.76-1.12s-.29-.95-.29-1.53v-.17c0-.57,.1-1.08,.29-1.52s.45-.82,.77-1.13c.32-.31,.69-.54,1.11-.7,.42-.16,.86-.24,1.32-.24s.9,.08,1.32,.24c.42,.16,.79,.39,1.11,.7s.58,.68,.77,1.13,.29,.95,.29,1.52v.17Zm-3.49,2.55c.34,0,.65-.06,.93-.18,.29-.12,.53-.29,.75-.51,.21-.22,.38-.49,.5-.8s.18-.67,.18-1.06v-.17c0-.37-.06-.72-.18-1.03s-.29-.58-.5-.81c-.21-.22-.47-.4-.76-.52s-.6-.19-.92-.19-.63,.06-.92,.19-.54,.3-.76,.52c-.21,.22-.38,.49-.5,.81s-.18,.66-.18,1.03v.17c0,.39,.06,.75,.18,1.06s.29,.58,.5,.8c.21,.22,.46,.39,.75,.51,.29,.12,.6,.18,.93,.18Z"/><path class="cls-7" d="M369.22,327.24h2.52v.92h.17c.18-.38,.43-.67,.76-.85s.7-.27,1.12-.27c.7,0,1.27,.23,1.7,.69s.66,1.12,.69,2l-1.15,.17c0-.64-.15-1.11-.46-1.39-.31-.29-.69-.43-1.13-.43-.29,0-.54,.06-.75,.17-.21,.11-.39,.27-.53,.46-.14,.2-.24,.42-.31,.69s-.1,.54-.1,.84v2.94h1.76v1.01h-4.45v-1.01h1.6v-4.93h-1.43v-1.01Z"/><path class="cls-7" d="M377.94,327.24h2.18v-2.86h1.09v2.86h2.69v1.01h-2.69v4.51c0,.28,.12,.42,.38,.42h1.97v1.01h-2.37c-.32,0-.58-.1-.78-.31-.2-.21-.3-.47-.3-.78v-4.84h-2.18v-1.01Z"/></g><g><path class="cls-7" d="M322.21,657.24h-.17c-.22,.47-.53,.81-.93,1.04-.4,.22-.81,.34-1.25,.34s-.88-.08-1.27-.23c-.39-.15-.73-.38-1.03-.69-.29-.3-.52-.67-.69-1.11s-.25-.95-.25-1.53v-.22c0-.57,.08-1.07,.25-1.51,.17-.44,.4-.81,.69-1.11,.29-.3,.64-.53,1.03-.69,.39-.16,.81-.24,1.25-.24,.48,0,.91,.11,1.29,.32s.69,.53,.92,.97h.17v-1.09h1.09v5.52c0,.28,.13,.42,.38,.42h.35v1.01h-.74c-.32,0-.58-.1-.78-.31-.2-.21-.3-.47-.3-.78v-.08Zm-2.24,.34c.33,0,.63-.06,.9-.18,.28-.12,.51-.29,.71-.52,.2-.22,.35-.49,.46-.81,.11-.31,.17-.66,.17-1.04v-.17c0-.37-.06-.72-.17-1.03s-.27-.58-.47-.81c-.2-.22-.44-.4-.71-.52s-.57-.19-.89-.19-.62,.06-.9,.18-.51,.29-.71,.51c-.2,.22-.36,.49-.47,.8-.11,.31-.17,.66-.17,1.03v.22c0,.79,.21,1.41,.62,1.86,.42,.44,.95,.67,1.62,.67Z"/><path class="cls-7" d="M325.73,657.41h2.52v-7.78h-2.44v-1.01h3.53v8.79h2.52v1.01h-6.13v-1.01Z"/><path class="cls-7" d="M334.47,657.41h2.44v-4.93h-2.18v-1.01h3.28v5.94h2.27v1.01h-5.8v-1.01Zm1.99-8.01c0-.27,.1-.5,.29-.69s.42-.29,.69-.29,.5,.1,.69,.29,.29,.42,.29,.69-.1,.5-.29,.69-.42,.29-.69,.29-.5-.1-.69-.29-.29-.42-.29-.69Z"/><path class="cls-7" d="M348.15,657.35h-.17c-.22,.42-.53,.74-.92,.95-.39,.21-.81,.31-1.27,.31s-.91-.08-1.32-.24c-.41-.16-.77-.39-1.08-.69-.31-.3-.56-.67-.74-1.11s-.27-.95-.27-1.52v-.22c0-.56,.09-1.06,.28-1.5s.43-.82,.74-1.12c.31-.3,.67-.53,1.08-.69,.41-.16,.84-.24,1.29-.24,.5,0,.94,.11,1.32,.33,.38,.22,.67,.54,.89,.96h.17v-1.09h1.09v8.65c0,.32-.1,.58-.3,.78-.2,.21-.46,.31-.78,.31h-4.52v-1.01h4.13c.25,0,.38-.14,.38-.42v-2.44Zm-2.32,.22c.33,0,.63-.06,.91-.18,.28-.12,.53-.29,.74-.52,.21-.22,.38-.49,.5-.81,.12-.31,.18-.66,.18-1.04v-.17c0-.37-.06-.72-.18-1.03-.12-.31-.29-.58-.5-.81-.21-.22-.46-.4-.74-.52-.29-.13-.59-.19-.9-.19s-.63,.06-.92,.18-.53,.29-.74,.52-.37,.49-.49,.8c-.12,.31-.18,.65-.18,1.02v.22c0,.39,.06,.74,.18,1.05,.12,.31,.28,.57,.49,.79,.21,.22,.46,.39,.74,.5,.28,.12,.59,.18,.92,.18Z"/><path class="cls-7" d="M352.53,658.42h-1.09v-6.94h1.09v1.18h.17c.43-.91,1.18-1.37,2.24-1.37,.8,0,1.44,.25,1.92,.75,.48,.5,.71,1.25,.71,2.25v4.14h-1.09v-3.92c0-.73-.16-1.27-.49-1.64-.33-.36-.77-.55-1.33-.55-.66,0-1.18,.23-1.56,.68-.38,.45-.57,1.06-.57,1.81v3.61Z"/><path class="cls-7" d="M360.8,655.28c.03,.69,.24,1.25,.64,1.67,.4,.42,.96,.63,1.68,.63,.33,0,.61-.04,.85-.11,.24-.07,.45-.18,.62-.31,.17-.13,.31-.28,.42-.46,.11-.17,.19-.36,.26-.55l1.04,.28c-.2,.64-.56,1.17-1.08,1.58s-1.24,.61-2.14,.61c-.49,0-.95-.09-1.36-.26-.42-.17-.77-.42-1.07-.73s-.53-.7-.7-1.13c-.17-.44-.25-.92-.25-1.46v-.34c0-.48,.09-.94,.26-1.36s.41-.78,.72-1.08c.31-.3,.67-.54,1.08-.71,.42-.17,.87-.26,1.35-.26,.57,0,1.06,.11,1.48,.32,.42,.21,.76,.47,1.02,.78,.27,.31,.46,.64,.59,1.01s.19,.7,.19,1.01v.9h-5.6Zm2.32-2.97c-.31,0-.59,.05-.86,.15-.27,.1-.5,.24-.7,.41-.2,.18-.36,.38-.49,.62-.13,.24-.21,.5-.25,.78h4.48c-.02-.3-.09-.57-.22-.81-.13-.24-.29-.45-.49-.62-.2-.17-.43-.3-.69-.39-.26-.09-.52-.14-.79-.14Z"/><path class="cls-7" d="M373.95,657.35h-.17c-.11,.21-.25,.4-.43,.56-.17,.16-.36,.29-.56,.39-.2,.1-.41,.18-.64,.23-.22,.05-.44,.08-.64,.08-.47,0-.9-.08-1.3-.24-.4-.16-.75-.39-1.06-.69-.3-.3-.54-.67-.71-1.11s-.26-.95-.26-1.52v-.22c0-.56,.09-1.06,.27-1.5,.18-.44,.42-.82,.71-1.12,.3-.3,.65-.53,1.05-.69,.4-.16,.83-.24,1.27-.24,.48,0,.92,.11,1.34,.32s.74,.53,.96,.97h.17v-3.95h1.09v9.8h-1.09v-1.06Zm-2.32,.22c.33,0,.63-.06,.91-.18,.28-.12,.53-.29,.74-.52,.21-.22,.38-.49,.5-.81,.12-.31,.18-.66,.18-1.04v-.17c0-.37-.06-.72-.18-1.03s-.29-.58-.5-.81c-.21-.22-.46-.4-.74-.52-.28-.13-.59-.19-.9-.19s-.63,.06-.92,.18c-.28,.12-.53,.29-.74,.52s-.37,.49-.49,.8c-.12,.31-.17,.65-.17,1.02v.22c0,.39,.06,.74,.17,1.05,.12,.31,.28,.57,.49,.79,.21,.22,.46,.39,.73,.5,.28,.12,.59,.18,.92,.18Z"/><path class="cls-7" d="M392.61,654.05h-1.36v4.37h-3.14c-.47,0-.88-.07-1.25-.2s-.67-.31-.91-.54c-.24-.23-.43-.5-.55-.81s-.19-.65-.19-1.02v-.17c0-.53,.16-.98,.48-1.35,.32-.37,.71-.62,1.18-.75v-.17c-.47-.12-.86-.37-1.18-.74-.32-.37-.48-.82-.48-1.35v-.17c0-.36,.06-.7,.19-1.02,.13-.31,.31-.58,.55-.8,.24-.22,.55-.4,.91-.53,.36-.13,.78-.2,1.25-.2h1.79v1.09h-1.71c-.55,0-1,.14-1.34,.41-.35,.28-.52,.65-.52,1.13v.08c0,.5,.16,.9,.49,1.19,.33,.29,.77,.43,1.33,.43h1.92v-1.48h1.18v1.48h1.36v1.09Zm-2.53,3.28v-3.28h-1.92c-.56,0-1,.15-1.33,.44-.33,.29-.49,.69-.49,1.2v.08c0,.49,.17,.87,.52,1.14,.34,.28,.79,.41,1.34,.41h1.88Z"/><path class="cls-7" d="M313.64,674.04h-.17c-.22,.47-.53,.81-.93,1.04-.4,.22-.81,.34-1.25,.34s-.88-.08-1.27-.23c-.39-.15-.73-.38-1.03-.69-.29-.3-.52-.67-.69-1.11s-.25-.95-.25-1.53v-.22c0-.57,.08-1.07,.25-1.51,.17-.44,.4-.81,.69-1.11,.29-.3,.64-.53,1.03-.69,.39-.16,.81-.24,1.25-.24,.48,0,.91,.11,1.29,.32s.69,.53,.92,.97h.17v-1.09h1.09v5.52c0,.28,.13,.42,.38,.42h.35v1.01h-.74c-.32,0-.58-.1-.78-.31-.2-.21-.3-.47-.3-.78v-.08Zm-2.24,.34c.33,0,.63-.06,.9-.18,.28-.12,.51-.29,.71-.52,.2-.22,.35-.49,.46-.81,.11-.31,.17-.66,.17-1.04v-.17c0-.37-.06-.72-.17-1.03s-.27-.58-.47-.81c-.2-.22-.44-.4-.71-.52s-.57-.19-.89-.19-.62,.06-.9,.18-.51,.29-.71,.51c-.2,.22-.36,.49-.47,.8-.11,.31-.17,.66-.17,1.03v.22c0,.79,.21,1.41,.62,1.86,.42,.44,.95,.67,1.62,.67Z"/><path class="cls-7" d="M323.66,672.75c-.07,.38-.2,.74-.38,1.06-.18,.33-.41,.61-.69,.85-.28,.24-.61,.42-.98,.55-.37,.13-.79,.2-1.25,.2-.49,0-.95-.08-1.38-.24-.43-.16-.81-.39-1.14-.69-.33-.3-.59-.67-.78-1.11-.19-.44-.29-.94-.29-1.51v-.17c0-.56,.1-1.06,.29-1.51,.19-.45,.45-.83,.78-1.13,.33-.31,.71-.55,1.14-.71,.43-.17,.89-.25,1.38-.25,.44,0,.84,.07,1.22,.2s.7,.32,.99,.55c.28,.24,.52,.52,.7,.85,.18,.33,.3,.68,.37,1.06l-1.09,.25c-.03-.24-.1-.48-.2-.71-.11-.23-.25-.43-.43-.6s-.4-.31-.67-.41c-.26-.1-.56-.15-.91-.15s-.65,.06-.95,.19c-.29,.13-.55,.3-.78,.53-.22,.23-.4,.5-.53,.82s-.19,.66-.19,1.04v.17c0,.39,.06,.74,.19,1.06,.13,.31,.3,.58,.53,.79,.22,.21,.49,.38,.78,.5,.3,.12,.62,.18,.97,.18s.65-.05,.9-.16c.26-.11,.48-.25,.66-.42,.18-.17,.33-.37,.43-.6,.11-.22,.18-.46,.22-.7l1.09,.25Z"/><path class="cls-7" d="M332.23,672.75c-.07,.38-.2,.74-.38,1.06-.18,.33-.41,.61-.69,.85-.28,.24-.61,.42-.98,.55-.37,.13-.79,.2-1.25,.2-.49,0-.95-.08-1.38-.24-.43-.16-.81-.39-1.14-.69-.33-.3-.59-.67-.78-1.11-.19-.44-.29-.94-.29-1.51v-.17c0-.56,.1-1.06,.29-1.51,.19-.45,.45-.83,.78-1.13,.33-.31,.71-.55,1.14-.71,.43-.17,.89-.25,1.38-.25,.44,0,.84,.07,1.22,.2s.7,.32,.99,.55c.28,.24,.52,.52,.7,.85,.18,.33,.3,.68,.37,1.06l-1.09,.25c-.03-.24-.1-.48-.2-.71-.11-.23-.25-.43-.43-.6s-.4-.31-.67-.41c-.26-.1-.56-.15-.91-.15s-.65,.06-.95,.19c-.29,.13-.55,.3-.78,.53-.22,.23-.4,.5-.53,.82s-.19,.66-.19,1.04v.17c0,.39,.06,.74,.19,1.06,.13,.31,.3,.58,.53,.79,.22,.21,.49,.38,.78,.5,.3,.12,.62,.18,.97,.18s.65-.05,.9-.16c.26-.11,.48-.25,.66-.42,.18-.17,.33-.37,.43-.6,.11-.22,.18-.46,.22-.7l1.09,.25Z"/><path class="cls-7" d="M340.85,671.83c0,.58-.1,1.09-.29,1.53-.19,.44-.45,.82-.76,1.12-.32,.3-.69,.53-1.11,.69-.42,.16-.87,.24-1.32,.24s-.91-.08-1.33-.24c-.42-.16-.79-.39-1.11-.69-.32-.3-.57-.68-.76-1.12s-.29-.95-.29-1.53v-.17c0-.57,.1-1.08,.29-1.52s.45-.82,.77-1.13c.32-.31,.69-.54,1.11-.7,.42-.16,.86-.24,1.32-.24s.9,.08,1.32,.24c.42,.16,.79,.39,1.11,.7s.58,.68,.77,1.13c.19,.44,.29,.95,.29,1.52v.17Zm-3.49,2.55c.34,0,.65-.06,.93-.18,.29-.12,.53-.29,.75-.51,.21-.22,.38-.49,.5-.8s.18-.67,.18-1.06v-.17c0-.37-.06-.72-.18-1.03s-.29-.58-.5-.81c-.21-.22-.47-.4-.76-.52s-.6-.19-.92-.19-.63,.06-.92,.19c-.29,.13-.54,.3-.76,.52-.21,.22-.38,.49-.5,.81s-.18,.66-.18,1.03v.17c0,.39,.06,.75,.18,1.06s.29,.58,.5,.8c.21,.22,.46,.39,.75,.51,.29,.12,.6,.18,.93,.18Z"/><path class="cls-7" d="M347.83,668.27h1.09v6.94h-1.09v-1.26h-.17c-.22,.45-.52,.8-.88,1.06-.36,.26-.83,.39-1.39,.39-.38,0-.74-.06-1.06-.19-.32-.13-.6-.32-.83-.57-.23-.25-.41-.56-.53-.94s-.19-.81-.19-1.3v-4.14h1.09v4c0,.73,.15,1.26,.45,1.6,.3,.34,.76,.5,1.37,.5,.66,0,1.18-.23,1.56-.68,.38-.45,.57-1.06,.57-1.81v-3.61Z"/><path class="cls-7" d="M352.53,675.22h-1.09v-6.94h1.09v1.18h.17c.43-.91,1.18-1.37,2.24-1.37,.8,0,1.44,.25,1.92,.75,.48,.5,.71,1.25,.71,2.25v4.14h-1.09v-3.92c0-.73-.16-1.27-.49-1.64-.33-.36-.77-.55-1.33-.55-.66,0-1.18,.23-1.56,.68-.38,.45-.57,1.06-.57,1.81v3.61Z"/><path class="cls-7" d="M359.77,668.27h2.18v-2.86h1.09v2.86h2.69v1.01h-2.69v4.51c0,.28,.13,.42,.38,.42h1.97v1.01h-2.37c-.32,0-.58-.1-.78-.31-.2-.21-.3-.47-.3-.78v-4.84h-2.18v-1.01Z"/><path class="cls-7" d="M373.61,674.04h-.17c-.22,.47-.53,.81-.93,1.04-.4,.22-.81,.34-1.25,.34s-.88-.08-1.27-.23c-.39-.15-.73-.38-1.03-.69-.29-.3-.52-.67-.69-1.11s-.25-.95-.25-1.53v-.22c0-.57,.08-1.07,.25-1.51,.17-.44,.4-.81,.69-1.11,.29-.3,.64-.53,1.03-.69,.39-.16,.81-.24,1.25-.24,.48,0,.91,.11,1.29,.32s.69,.53,.92,.97h.17v-1.09h1.09v5.52c0,.28,.13,.42,.38,.42h.35v1.01h-.74c-.32,0-.58-.1-.78-.31-.2-.21-.3-.47-.3-.78v-.08Zm-2.24,.34c.33,0,.63-.06,.9-.18,.28-.12,.51-.29,.71-.52,.2-.22,.35-.49,.46-.81,.11-.31,.17-.66,.17-1.04v-.17c0-.37-.06-.72-.17-1.03s-.27-.58-.47-.81c-.2-.22-.44-.4-.71-.52s-.57-.19-.89-.19-.62,.06-.9,.18-.51,.29-.71,.51c-.2,.22-.36,.49-.47,.8-.11,.31-.17,.66-.17,1.03v.22c0,.79,.21,1.41,.62,1.86,.42,.44,.95,.67,1.62,.67Z"/><path class="cls-7" d="M377.98,675.22h-1.09v-9.8h1.09v3.95h.17c.24-.42,.58-.74,1.01-.96,.43-.22,.9-.33,1.4-.33,.43,0,.83,.08,1.22,.24,.38,.16,.72,.39,1.02,.69s.53,.67,.7,1.11c.17,.44,.26,.94,.26,1.5v.28c0,.57-.08,1.07-.25,1.51s-.4,.81-.69,1.11-.64,.52-1.03,.68c-.39,.15-.81,.23-1.25,.23-.22,0-.45-.03-.69-.08-.23-.05-.46-.13-.67-.24s-.4-.24-.58-.39c-.18-.15-.33-.34-.45-.55h-.17v1.06Zm2.32-.84c.34,0,.64-.06,.92-.18,.28-.12,.53-.28,.74-.5,.21-.21,.37-.48,.49-.78,.12-.31,.17-.65,.17-1.04v-.28c0-.37-.06-.71-.17-1.01-.12-.3-.28-.56-.49-.78s-.46-.39-.74-.51c-.28-.12-.59-.18-.92-.18s-.63,.06-.91,.19c-.28,.13-.52,.3-.73,.52-.21,.22-.38,.49-.5,.81-.12,.31-.18,.66-.18,1.03v.17c0,.38,.06,.73,.18,1.04,.12,.31,.29,.58,.5,.81,.21,.22,.46,.4,.73,.52,.28,.12,.58,.18,.91,.18Z"/><path class="cls-7" d="M385.71,674.21h2.52v-7.78h-2.44v-1.01h3.53v8.79h2.52v1.01h-6.13v-1.01Z"/><path class="cls-7" d="M395.07,672.08c.03,.69,.24,1.25,.64,1.67,.4,.42,.96,.63,1.68,.63,.33,0,.61-.04,.85-.11,.24-.07,.45-.18,.62-.31,.17-.13,.31-.28,.42-.46,.11-.17,.19-.36,.26-.55l1.04,.28c-.2,.64-.56,1.17-1.08,1.58s-1.24,.61-2.14,.61c-.49,0-.95-.09-1.36-.26-.42-.17-.77-.42-1.07-.73s-.53-.7-.7-1.13c-.17-.44-.25-.92-.25-1.46v-.34c0-.48,.09-.94,.26-1.36s.41-.78,.72-1.08c.31-.3,.67-.54,1.08-.71,.42-.17,.87-.26,1.35-.26,.57,0,1.06,.11,1.48,.32,.42,.21,.76,.47,1.02,.78,.27,.31,.46,.64,.59,1.01s.19,.7,.19,1.01v.9h-5.6Zm2.32-2.97c-.31,0-.59,.05-.86,.15-.27,.1-.5,.24-.7,.41-.2,.18-.36,.38-.49,.62-.13,.24-.21,.5-.25,.78h4.48c-.02-.3-.09-.57-.22-.81-.13-.24-.29-.45-.49-.62-.2-.17-.43-.3-.69-.39-.26-.09-.52-.14-.79-.14Z"/></g><rect class="cls-7" x="5.93" y="111.62" width="124.85" height="425.4"/><line class="cls-3" x1="130.78" y1="330.74" x2="316.96" y2="330.74"/><g><line class="cls-3" x1="399.17" y1="111.62" x2="454.27" y2="111.62"/><polygon class="cls-7" points="453.61 106.68 453.61 116.55 458.54 111.62 453.61 106.68"/></g><g><line class="cls-3" x1="393.98" y1="330.74" x2="454.27" y2="330.74"/><polygon class="cls-7" points="453.61 325.8 453.61 335.67 458.54 330.74 453.61 325.8"/></g><g><line class="cls-3" x1="395.02" y1="496.69" x2="454.27" y2="496.69"/><polygon class="cls-7" points="453.61 491.75 453.61 501.62 458.54 496.69 453.61 491.75"/></g><g><line class="cls-3" x1="409.53" y1="660.49" x2="454.27" y2="660.49"/><polygon class="cls-7" points="453.61 655.55 453.61 665.42 458.54 660.49 453.61 655.55"/></g><polyline class="cls-3" points="309.7 111.62 225.97 111.62 225.97 496.69 314.89 496.69"/><polyline class="cls-3" points="67.7 537.02 67.7 660.49 295.51 660.49"/><g><path class="cls-6" d="M57.44,279.82c0-1.27,.3-2.25,.91-2.95,.61-.7,1.45-1.05,2.53-1.05s1.93,.35,2.53,1.05c.61,.7,.91,1.68,.91,2.95v2.18c0,1.31-.3,2.3-.91,2.98-.61,.68-1.45,1.02-2.53,1.02s-1.93-.34-2.53-1.02c-.61-.68-.91-1.67-.91-2.98v-2.18Zm3.44,5.12c.76,0,1.32-.26,1.7-.79,.38-.53,.57-1.27,.57-2.23v-2.02c0-.45-.05-.86-.14-1.22-.09-.37-.24-.69-.43-.95-.19-.27-.43-.47-.71-.62-.29-.15-.61-.22-.99-.22s-.71,.07-.99,.22-.52,.36-.71,.62c-.19,.27-.33,.58-.43,.95-.09,.37-.14,.78-.14,1.22v2.02c0,.96,.19,1.71,.57,2.23,.38,.53,.95,.79,1.7,.79Zm-.9-4.03c0-.24,.09-.45,.27-.63,.18-.18,.39-.27,.63-.27s.45,.09,.63,.27,.27,.39,.27,.63-.09,.45-.27,.63c-.18,.18-.39,.27-.63,.27s-.45-.09-.63-.27-.27-.39-.27-.63Z"/><path class="cls-6" d="M66.01,279.82c0-1.27,.3-2.25,.91-2.95,.61-.7,1.45-1.05,2.53-1.05s1.93,.35,2.53,1.05c.61,.7,.91,1.68,.91,2.95v2.18c0,1.31-.3,2.3-.91,2.98-.61,.68-1.45,1.02-2.53,1.02s-1.93-.34-2.53-1.02c-.61-.68-.91-1.67-.91-2.98v-2.18Zm3.44,5.12c.76,0,1.32-.26,1.7-.79,.38-.53,.57-1.27,.57-2.23v-2.02c0-.45-.05-.86-.14-1.22-.09-.37-.24-.69-.43-.95-.19-.27-.43-.47-.71-.62-.29-.15-.61-.22-.99-.22s-.71,.07-.99,.22-.52,.36-.71,.62c-.19,.27-.33,.58-.43,.95-.09,.37-.14,.78-.14,1.22v2.02c0,.96,.19,1.71,.57,2.23,.38,.53,.95,.79,1.7,.79Zm-.9-4.03c0-.24,.09-.45,.27-.63,.18-.18,.39-.27,.63-.27s.45,.09,.63,.27,.27,.39,.27,.63-.09,.45-.27,.63c-.18,.18-.39,.27-.63,.27s-.45-.09-.63-.27-.27-.39-.27-.63Z"/><path class="cls-6" d="M77.04,285.03c0-.27,.1-.5,.29-.69s.42-.29,.69-.29,.5,.1,.69,.29,.29,.42,.29,.69-.1,.5-.29,.69-.42,.29-.69,.29-.5-.1-.69-.29-.29-.42-.29-.69Z"/></g><g><path class="cls-6" d="M90.13,308.48l-1.01-1.01-1.26,1.26c-1.68-2.86-4.47-4-8.32-4-6.69,0-10.18,3.44-10.18,13.33,0,3.36,.4,5.98,1.2,7.97l-1.61,1.61,1.01,1.01,1.26-1.26c1.68,2.86,4.47,4,8.32,4,6.69,0,10.18-3.44,10.18-13.33,0-3.36-.4-5.98-1.2-7.97l1.61-1.61Zm-17.96,9.58c0-4.12,.66-7.01,1.95-8.59,.67-.82,1.96-1.92,5.42-1.92s4.74,1.09,5.42,1.92c.31,.38,.58,.83,.81,1.35l-12.98,12.98c-.41-1.52-.61-3.44-.61-5.74Zm14.73,0c0,4.12-.66,7.01-1.95,8.59-.67,.82-1.96,1.92-5.42,1.92s-4.74-1.09-5.42-1.92c-.31-.38-.58-.83-.81-1.35l12.98-12.98c.41,1.52,.61,3.44,.61,5.74Z"/><path class="cls-6" d="M63.8,313.39c-.58-.63-1.31-1.07-2.19-1.32-.88-.25-1.89-.37-3.03-.37-.74,0-1.45,.1-2.12,.3-.67,.2-1.28,.47-1.82,.8-.55,.33-1.02,.71-1.43,1.12-.41,.41-.74,.82-.99,1.25h-.19l-.64-2.59c-.06-.25-.28-.42-.54-.42h-4.14v2.42h2.79v16.18h2.86v-10.63c0-.98,.26-1.95,.8-2.77v-.02c.38-.56,.81-1.04,1.31-1.47,.49-.42,1.04-.76,1.65-1.02,.61-.26,1.23-.39,1.87-.39,1.75,0,2.96,.52,3.63,1.56,.67,1.04,1,2.59,1,4.64v10.09h2.94v-10.68c0-1.66-.15-3.03-.45-4.11s-.74-1.93-1.32-2.57Z"/></g><g><path class="cls-6" d="M49.47,346.16c0-.36-.07-.68-.22-.96-.14-.28-.34-.51-.58-.69-.25-.18-.53-.32-.85-.42-.32-.1-.66-.14-1.01-.14-.31,0-.6,.04-.88,.12s-.53,.2-.74,.34-.39,.33-.52,.55-.19,.47-.19,.76v.1c0,.31,.06,.57,.19,.79,.13,.22,.32,.41,.57,.56,.25,.15,.56,.28,.94,.38,.37,.1,.81,.19,1.31,.26,1.17,.18,2.04,.53,2.59,1.03,.55,.51,.83,1.19,.83,2.04v.19c0,.48-.08,.92-.25,1.32-.17,.4-.41,.74-.74,1.03-.33,.29-.73,.51-1.21,.67-.48,.16-1.04,.24-1.66,.24-.71,0-1.35-.1-1.9-.31-.55-.21-1.01-.5-1.38-.86-.37-.37-.65-.8-.84-1.3-.19-.5-.29-1.04-.29-1.62v-.48h1.34v.38c0,.98,.27,1.72,.81,2.21,.54,.49,1.29,.74,2.25,.74,.83,0,1.46-.18,1.88-.55,.42-.37,.63-.86,.63-1.46v-.1c0-.59-.22-1.03-.65-1.34-.43-.31-1.13-.53-2.1-.67-.57-.07-1.07-.19-1.53-.34-.45-.15-.84-.36-1.16-.61-.32-.25-.57-.55-.74-.9-.17-.35-.26-.77-.26-1.25v-.19c0-.44,.09-.84,.27-1.2,.18-.36,.43-.68,.76-.94,.33-.27,.71-.47,1.17-.62,.45-.14,.95-.22,1.5-.22,.63,0,1.19,.09,1.69,.27,.5,.18,.91,.42,1.26,.73,.34,.3,.6,.66,.78,1.07,.18,.41,.26,.84,.26,1.29v.67h-1.34v-.58Z"/><path class="cls-6" d="M53.49,342.93h7.87v1.25h-3.26v9.95h-1.34v-9.95h-3.26v-1.25Z"/><path class="cls-6" d="M70.42,351.35h-4.8l-.82,2.78h-1.44l3.39-11.2h2.53l3.39,11.2h-1.44l-.82-2.78Zm-2.5-7.84l-1.94,6.59h4.06l-1.94-6.59h-.19Z"/><path class="cls-6" d="M75.23,342.93h6.88v1.25h-5.54v3.71h5.44v1.25h-5.44v4.99h-1.34v-11.2Z"/><path class="cls-6" d="M85.83,342.93h6.88v1.25h-5.54v3.71h5.44v1.25h-5.44v4.99h-1.34v-11.2Z"/></g></svg>